<svg xmlns="http://www.w3.org/2000/svg" viewBox="0 0 117.78 89.16"><defs><style>.cls-1{fill:#444d56;}.cls-2{fill:#778693;}.cls-3{fill:#8c9dac;}.cls-4{fill:#343e47;}.cls-5{fill:#697783;}.cls-6{fill:#97aabb;}</style></defs><g id="Calque_2" data-name="Calque 2"><g id="Layer_2" data-name="Layer 2"><path class="cls-1" d="M52.28,88.88a50.79,50.79,0,0,0,7.21-.75c2.71-.61,8-1.06,8-1.06l12-1.35s15.33-.6,22.09-2.55a129.15,129.15,0,0,0,16.08-6.47l-2.4-7.06L95.86,60,93,33l-1.2-.6L80.08,34.93l-8.57,9.92L61.3,46.2s1.05,9.77.6,9.62-5.26,4.65-6,5.71-5.72,11-5.72,11l2,7.81Z"/><path class="cls-2" d="M25,.29,9.7,6.18,3.54,26.28.33,40.75l5.09,18,6.43,4L27.39,74,52.28,88.88a32.68,32.68,0,0,0-.78-10.36c-1.34-5.09-1.07-7.23-1.07-7.23s3.48-7.5,6.16-10.72,5.09-5.89,5.09-5.89L61.3,46.2,47.21,30.56l-1.61-11-7.23-7-4.55-7S27.12.56,25,.29Z"/><polygon class="cls-2" points="69.02 77.77 100.41 75.76 115.25 69.64 95.86 60.02 69.02 77.77"/><polygon class="cls-3" points="24.97 0.29 32 4.14 45.6 19.58 47.21 30.57 61.3 46.2 71.51 44.84 80.24 34.49 91.8 32.37 77.07 19.83 73.05 8.56 40.05 2.53 24.97 0.29"/><polygon class="cls-4" points="52.13 80.31 69.02 77.77 69.83 86.63 52.28 88.88 52.13 80.31"/><polygon class="cls-4" points="100.41 75.76 101.57 83.17 110.47 80.99 117.65 76.7 115.25 69.64 100.41 75.76"/><path class="cls-5" d="M5.42,58.7l16.43-2.46L44.74,70.07l5.69,1.22,1.7,9s1.84,8.22.15,8.57S27.39,74,27.39,74L17.6,66.88Z"/><polygon class="cls-5" points="47.21 30.57 77.2 21.65 73.05 8.56 45.6 19.58 47.21 30.57"/><path class="cls-1" d="M52.16,88.94,40.08,82.22c-2-1.12-4-2.23-6-3.44s-3.94-2.39-5.88-3.64-3.85-2.54-5.71-3.93-3.6-2.94-5.39-4.32c-3.66-2.73-7.56-5.18-11.48-7.56l-.11-.06-.06-.1a26.62,26.62,0,0,1-2-4.48c-.56-1.52-1-3.07-1.43-4.63C1.22,46.94.56,43.8,0,40.61v-.14a158.74,158.74,0,0,1,4-17.21C5.66,17.6,7.41,12,9.25,6.4l0-.12.11,0,14.88-6L9.58,6.7l.14-.15C8,12.16,6.34,17.8,4.83,23.47A169.68,169.68,0,0,0,.94,40.61v-.15C1.49,43.6,2.17,46.73,3,49.8a40.67,40.67,0,0,0,3.28,8.88l-.16-.17c3.93,2.42,7.82,4.89,11.53,7.69,1.84,1.44,3.51,3,5.35,4.36s3.69,2.71,5.6,4,3.84,2.51,5.79,3.73,4,2.37,5.92,3.56Z"/><path class="cls-6" d="M44.77,69.2a12.71,12.71,0,0,1,3,.81,13.52,13.52,0,0,1,2.78,1.58l-.66.75a12,12,0,0,0-5.13-3.14Z"/><path class="cls-6" d="M47,30.5c-.35-1.73-.57-3.25-.79-4.77s-.43-3-.77-4.68l2-.39c.35,1.73.57,3.26.79,4.78s.44,3,.77,4.66Z"/><path class="cls-6" d="M48.66,29.63s.71,1.16,1.83,2.81,2.71,3.84,4.39,6c3.35,4.23,7,8.22,7,8.22s-4-3.62-7.79-7.56c-1.88-2-3.69-4-5-5.59S47,30.78,47,30.78Z"/><path class="cls-6" d="M61.74,46.8s-4.07-3.68-7.8-7.57c-1.82-1.9-3.64-3.95-5-5.61s-2.12-2.68-2.12-2.69l-.16-.21,2.08-1.45.14.23s.72,1.18,1.82,2.8c1.19,1.77,2.78,3.93,4.38,5.94,3.3,4.17,7,8.16,7,8.2Zm-14.37-16c.3.38,1,1.29,2,2.46,1.35,1.65,3.17,3.69,5,5.58,1.29,1.36,2.63,2.69,3.82,3.84-1.08-1.26-2.28-2.7-3.45-4.17-1.6-2-3.2-4.19-4.4-6-.82-1.21-1.43-2.17-1.69-2.59Z"/><path class="cls-6" d="M24.12.26s.48.09,1.3.34A17,17,0,0,1,28.69,2,31.76,31.76,0,0,1,37,8.9c2.61,2.94,5,6,7,8a29,29,0,0,0,3.52,3.16l-1.26,1.56a30.85,30.85,0,0,1-3.51-3.58c-2-2.25-4.19-5.48-6.57-8.54a31.38,31.38,0,0,0-7.64-7.3A17,17,0,0,0,25.39.68C24.59.39,24.12.26,24.12.26Z"/><path class="cls-6" d="M96.26,59.45q-1.87-13.32-3.6-26.68l.18.28c-5.8-3.57-10.7-8.31-16.26-12l-.13-.09-.06-.15L72.54,9.14l.33.32c-2-.59-3.94-1.14-5.92-1.64a55.25,55.25,0,0,0-6-1.16C56.88,6,52.84,5.31,48.8,4.54,40.73,3,32.69,1.35,24.59,0c8.15,1,16.25,2.44,24.34,3.83,4,.67,8.1,1.34,12.15,2a55.26,55.26,0,0,1,6.09,1.13c2,.49,4,1,6,1.61l.24.07.08.24L77.3,20.47l-.19-.25c5.61,3.85,10.51,8.54,16.13,12.18l.16.1,0,.18Q94.94,46.06,96.26,59.45Z"/><path class="cls-1" d="M51.92,88.94c5.57-.46,11.06-1.5,16.59-2.3,2.77-.41,5.54-.79,8.33-1L85.2,85a111.55,111.55,0,0,0,16.5-2.38,54.66,54.66,0,0,0,7.94-2.41,40.14,40.14,0,0,0,3.8-1.67c1.25-.6,2.44-1.3,3.63-2l-.19.44a42.67,42.67,0,0,0-1.76-7l.17.17c-6.42-3.25-12.8-6.57-19.16-9.91,6.51,3.06,13,6.12,19.47,9.27l.12.06,0,.11a24.59,24.59,0,0,1,1.15,3.56c.31,1.19.57,2.39.8,3.6l.06.29-.25.15c-1.21.73-2.42,1.46-3.69,2.08S111.29,80.51,110,81a57,57,0,0,1-8.06,2.51,106.54,106.54,0,0,1-16.65,2.31l-8.36.54c-2.78.2-5.55.51-8.32.86C63.06,88,57.5,88.68,51.92,88.94Z"/><path class="cls-6" d="M92.59,32.16c-2,.6-4,1.15-6.08,1.7s-4.06,1.12-6.1,1.62l.18-.07-.09.06.11-.09c-1.31,1.49-2.61,3-3.84,4.51-.61.77-1.21,1.54-1.78,2.33a29.39,29.39,0,0,1-1.83,2.46,4.33,4.33,0,0,1-1.5,1.1,5.5,5.5,0,0,1-1.74.32c-.54,0-1,0-1.53,0s-1,0-1.42,0a23.58,23.58,0,0,0-5.57,1.19l.67-1,.74,9.09,0,.49-.37.32a41.81,41.81,0,0,0-6.75,7.61,46.09,46.09,0,0,0-2.64,4.37A39.89,39.89,0,0,0,51,72.91l0-.38a65,65,0,0,1,1.36,8.28,27.18,27.18,0,0,1-.22,8.35,22,22,0,0,0,0-4.14,40.41,40.41,0,0,0-.57-4.1c-.51-2.71-1.09-5.42-1.84-8.06l0-.17.06-.21A39.48,39.48,0,0,1,61.17,54.79l-.33.81-.72-9.08-.07-.77.74-.24a23.19,23.19,0,0,1,6.06-1.2c.54,0,1,0,1.55,0l1.45,0a2.41,2.41,0,0,0,2.06-.81c.6-.62,1.18-1.45,1.82-2.24s1.29-1.54,2-2.29c1.33-1.49,2.72-2.92,4.11-4.35l.06-.06,0,0,.09-.05.1-.06h.08c2.06-.43,4.13-.78,6.2-1.16S90.51,32.5,92.59,32.16Z"/><path class="cls-6" d="M70.17,87A34.82,34.82,0,0,1,68,78.17l0,.13-.25-.46-.15-.29.29-.17,7.16-4.46,7.13-4.5,14.22-9.11q-6.63,5.25-13.71,9.88c-2.35,1.56-4.72,3.09-7.14,4.53S70.8,76.63,68.33,78l.13-.46.22.47,0,.07v.06A46.17,46.17,0,0,0,70.17,87Z"/><path class="cls-6" d="M48.89,45.72v-.37a.1.1,0,0,0-.19,0v.37a.1.1,0,0,0,.19,0Z"/><path class="cls-6" d="M49.28,45c1.23-2.58,2.63-5.08,3.87-7.64.27-.56-.58-1-.82-.48-1.12,2.64-2.09,5.36-3.23,8-.06.12.12.23.18.1Z"/><path class="cls-6" d="M42.13,49c2.86-1.32,5.77-2.52,8.63-3.84.28-.13,0-.55-.24-.42C47.7,46.14,44.93,47.61,42.1,49c0,0,0,.07,0,.05Z"/><path class="cls-6" d="M33,20.31c2.06-2.13,4.23-4.17,6.22-6.36.56-.61-.37-1.53-.91-.91-1.94,2.26-3.72,4.67-5.59,7-.16.19.1.47.28.28Z"/><path class="cls-6" d="M20.94,44.61c-.05,3.7.06,7.4-.07,11.1a.18.18,0,0,0,.35,0c-.13-3.7,0-7.4-.06-11.1a.11.11,0,0,0-.22,0Z"/><path class="cls-6" d="M29.56,60.15c-2.65-1.59-5.28-3.22-7.95-4.76-.28-.16-.53.27-.25.42,2.69,1.52,5.43,2.95,8.15,4.42a0,0,0,1,0,0-.08Z"/><path class="cls-6" d="M13.64,57.53c2.48-.56,5-1.07,7.46-1.65.34-.08.2-.63-.15-.54-2.45.68-4.88,1.42-7.33,2.12,0,0,0,.08,0,.07Z"/><path class="cls-6" d="M18,18.92A66.19,66.19,0,0,0,32.88,20.7c.59,0,.59-.94,0-.91a62.56,62.56,0,0,1-14.77-1.14.14.14,0,0,0-.07.27Z"/><path class="cls-6" d="M49.89,63.09a62.12,62.12,0,0,1,6.53-.9c.92-.14.52-1.52-.38-1.39a28.78,28.78,0,0,0-6.22,2c-.18.07-.11.33.07.28Z"/><path class="cls-6" d="M77.28,76.82c7.78,0,15.54-.18,23.31-.5.82,0,.82-1.32,0-1.28-7.79.36-15.55.85-23.31,1.53-.15,0-.16.25,0,.25Z"/><path class="cls-6" d="M110.62,70.54A78,78,0,0,0,100.36,75c-.73.34-.09,1.47.64,1.09a75.94,75.94,0,0,0,9.7-5.32.1.1,0,0,0-.08-.19Z"/><path class="cls-6" d="M74.58,49.69a14,14,0,0,0-3-4.5c-.54-.53-1.29.39-.64.83a10.44,10.44,0,0,1,3.44,3.76c.06.11.26,0,.21-.09Z"/><path class="cls-6" d="M63.61,12.47A77,77,0,0,0,45.76,19.8a.69.69,0,0,0,.7,1.19c5.63-3.1,11.31-5.82,17.22-8.36.09,0,0-.19-.07-.16Z"/><path class="cls-6" d="M73.19,32.11c2.47,1,4.79,2.42,7.28,3.43.79.33,1.18-1,.36-1.3-2.5-.9-5.11-1.4-7.6-2.27-.09,0-.12.11,0,.14Z"/><path class="cls-6" d="M7.72,38.5A17.37,17.37,0,0,0,.4,40.78c-.48.29,0,1,.44.75a19.22,19.22,0,0,1,6.92-2.77.13.13,0,0,0,0-.26Z"/><path class="cls-6" d="M28.55,39.12a23.23,23.23,0,0,1,4.2-5.74.25.25,0,0,0-.36-.36,17.56,17.56,0,0,0-4.06,6c-.06.13.16.21.22.09Z"/><path class="cls-6" d="M28.42,43.49c2.75-3.19,5.44-6.44,8.09-9.7.21-.25-.15-.61-.35-.36-2.65,3.3-5.27,6.62-7.83,10,0,0,.05.12.09.07Z"/><path class="cls-6" d="M39,30.34c2.38-3,4.57-6.12,6.78-9.24.32-.45-.45-.92-.74-.44-2,3.25-4.16,6.34-6.38,9.42-.14.2.18.45.34.26Z"/><path class="cls-6" d="M43.24,27.59c1-1.86,2.38-3.44,3.42-5.28.4-.71-.74-1.36-1.09-.63-.93,1.91-1.45,4-2.43,5.86,0,.06.07.12.1.05Z"/><path class="cls-6" d="M23.69,54.23v-.37a.05.05,0,0,0-.1,0v.37a.05.05,0,0,0,.1,0Z"/><path class="cls-6" d="M23.65,53.48a1.16,1.16,0,0,0-.36-1.24.07.07,0,0,0-.07,0,3,3,0,0,0-1.36,1.47c-.26.43.46.77.66.27a5.49,5.49,0,0,1,.54-1.05l.16-.27c.13-.33.24-.06.34.81a0,0,0,0,0,.09,0Z"/><path class="cls-6" d="M12.57,24.68a20.59,20.59,0,0,0-3.93,3.09c-.09.11.06.26.16.16a23.31,23.31,0,0,1,3.79-3.22s0-.05,0,0Z"/><path class="cls-6" d="M8.86,15.41l.38-.36s0-.11-.06-.07l-.37.38s0,.08,0,.05Z"/><path class="cls-6" d="M72.72,77.73A205.16,205.16,0,0,0,95.25,61c.62-.51-.26-1.37-.88-.88-7.29,5.8-14,12.21-21.77,17.43-.12.08,0,.28.12.2Z"/><path class="cls-6" d="M81.48,75.07c.93-.92,1.82-1.88,2.69-2.86.2-.22-.12-.55-.32-.32-.88,1-1.73,2-2.54,3a.12.12,0,0,0,.17.17Z"/><path class="cls-6" d="M86.63,69.87l.75-.74c.13-.13-.08-.34-.21-.2l-.73.74a.14.14,0,0,0,.19.2Z"/><path class="cls-6" d="M90.77,66.24l4.46-4.41c.36-.35-.21-.91-.54-.55l-4.22,4.66c-.17.2.11.48.3.3Z"/><path class="cls-6" d="M92.3,71l.79-1.08c.17-.23-.24-.48-.4-.23L92,70.82c-.13.21.19.38.33.19Z"/><path class="cls-6" d="M92.08,75.3a24.82,24.82,0,0,0,9.33.29c.39-.06.23-.67-.17-.59a25.82,25.82,0,0,1-9.11.14c-.11,0-.16.14,0,.16Z"/><path class="cls-6" d="M109.5,71.37a59.4,59.4,0,0,0,5.62-2c.44-.18.26-.9-.2-.73-1.88.69-3.79,1.44-5.59,2.31-.22.11-.06.46.17.39Z"/><path class="cls-6" d="M101.86,82c-.13-1.86-.39-3.71-.61-5.56,0-.32-.55-.32-.51,0,.25,1.87.47,3.75.81,5.6a.16.16,0,0,0,.31,0Z"/><path class="cls-6" d="M75.51,50.23,77,48.41c.09-.1-.07-.26-.15-.15l-1.45,1.88c0,.07,0,.16.09.09Z"/><path class="cls-6" d="M80.83,36.74c-2.42,3.68-4.8,7.31-6.89,11.19-.12.2.2.39.31.18,2.16-3.8,4.28-7.65,6.62-11.35,0,0,0,0,0,0Z"/><path class="cls-6" d="M78.77,41.28c.44-1.22.86-2.43,1.28-3.65.09-.24-.29-.34-.37-.1-.42,1.22-.82,2.44-1.22,3.66-.06.2.24.28.31.09Z"/><path class="cls-6" d="M61.07,62.76l1.17-3.32c.07-.18-.23-.26-.29-.08-.37,1.11-.73,2.22-1.1,3.34,0,.14.17.19.22.06Z"/><path class="cls-6" d="M63.34,57.25c.46-.87,1-1.71,1.43-2.6.11-.24-.23-.44-.35-.21-.47.88-.85,1.81-1.28,2.7-.06.13.13.24.2.11Z"/><path class="cls-6" d="M65.4,52.36c-1.13,1.9-2.23,3.84-3.46,5.69l.6.25a15.6,15.6,0,0,1,1.21-3.24c.18-.37-.36-.69-.56-.32a13.56,13.56,0,0,0-1.29,3.38c-.08.35.44.61.61.26.93-2,2-4,3.05-5.93a.09.09,0,0,0-.16-.09Z"/></g></g></svg>