<svg xmlns="http://www.w3.org/2000/svg" width="800" height="860.63"><defs><filter id="c" color-interpolation-filters="sRGB"><feColorMatrix in="SourceGraphic" values="1 0 0 0 0 0 1 0 0 0 0 0 1 0 0 -0.2125 -0.7154 -0.0721 1 0" result="colormatrix"/><feComposite in="SourceGraphic" in2="colormatrix" operator="arithmetic" k2="1" result="composite"/><feGaussianBlur stdDeviation="0.1 0.01" result="blur1"/><feGaussianBlur in="composite" stdDeviation="0.01 0.1" result="blur2"/><feBlend in="blur2" in2="blur1" mode="darken" result="blend"/></filter><filter id="b" color-interpolation-filters="sRGB"><feColorMatrix in="SourceGraphic" values="1 0 0 0 0 0 1 0 0 0 0 0 1 0 0 -0.2125 -0.7154 -0.0721 1 0" result="colormatrix"/><feComposite in="SourceGraphic" in2="colormatrix" operator="arithmetic" k2="1" result="composite"/><feGaussianBlur stdDeviation="0.1 0.01" result="blur1"/><feGaussianBlur in="composite" stdDeviation="0.01 0.1" result="blur2"/><feBlend in="blur2" in2="blur1" mode="darken" result="blend"/></filter><clipPath clipPathUnits="userSpaceOnUse" id="a"><path d="M3045.025 0c-105.057 164.74-2.4 278.858 66.106 326.87 174.391 122.217 290.144 202.832 470.36 348.905l34.142-33.203v-.015c-154.337-141.372-329.805-272.716-464.53-426.084l464.53 426.084 20.902-20.323C3459.558 468.64 3039.861 114.185 3045.025 0zm602.293 627.04l-59.828 58.081c-2.534 2.46-2.26 8.658.594 9.43 59.458 16.069 76.37 39.317 98.48 62.06 29.359 35.926 38.914 76.904 58.715 93.616 36.616 30.903 69.263-12.768 47.965-56.061-14.532-29.539-33.815-51.969-59.18-79.16-25.364-27.191-60.989-57.85-86.746-87.967zm14.625 38.474a7.479 7.479 0 01.526.03 7.479 7.479 0 016.74 8.147 7.479 7.479 0 01-8.148 6.74 7.479 7.479 0 01-6.74-8.146 7.479 7.479 0 017.622-6.771zm50.291 52.933a7.479 7.479 0 01.528.031 7.479 7.479 0 016.74 8.149 7.479 7.479 0 01-8.15 6.754 7.479 7.479 0 01-6.739-8.162 7.479 7.479 0 017.621-6.772zm43.53 53.49a7.479 7.479 0 01.525.03 7.479 7.479 0 016.74 8.148 7.479 7.479 0 01-8.146 6.74 7.479 7.479 0 01-6.74-8.148 7.479 7.479 0 017.62-6.77z" fill="#dad9d0"/></clipPath></defs><path d="M45.026 0c-105.057 164.74-2.4 278.857 66.106 326.868 174.391 122.218 290.142 202.834 470.357 348.908l34.144-33.205c-.002-.002.004-.014 0-.014C461.298 501.185 285.83 369.84 151.104 216.473l464.531 426.084 20.902-20.323C459.558 468.638 39.862 114.185 45.026 0z" fill="#dad9d0"/><g transform="translate(-3000)" clip-path="url(#a)" filter="url(#b)"><path d="M138.13 261.6c.58-2.21 14.47-.63 14.31.22l-.74.57c-1.54-.13-3.08-.29-4.62-.41-1.64-.32-3.31-.09-4.89.35-1.35-.27-2.71-.51-4.06-.73z" transform="rotate(32.007 1761.56 5378.229) scale(1.25)" fill="#d7b1a9" filter="url(#c)"/><path d="M135.17 262.94c.44-1.02 1.43-1.47 2.96-1.34 1.35.22 2.71.46 4.06.73l-.09.48c-1.73.03-5.19.1-6.93.13z" transform="rotate(32.007 1761.56 5378.229) scale(1.25)" fill="#d59892" filter="url(#c)"/><path d="M142.19 262.33c1.58-.44 3.25-.67 4.89-.35-1.17 1.02-2.66 1.51-4.2 1.35l-.78-.52.09-.48z" transform="rotate(32.007 1761.56 5378.229) scale(1.25)" fill="#cf5c58" filter="url(#c)"/><path d="M147.08 261.98c1.54.12 3.08.28 4.62.41 1.77.48 3.62.57 5.45.61 1.51.1 3.02.16 4.53.2 1.75.32 3.47.95 5.27.94 1.93.04 3.87-.03 5.8.01 4.53.11 9.02.79 13.55.94l2.65.12c.88.89 1.93 1.16 3.15.83 1.04 1.13 2.63 1.53 4.07.92l.84.27c1.75.64 3.61.94 5.46 1.12-11.61 7.12-25.05-3.89-37.58-.33-7.77 2.25-14.75-2.99-22.31-3.82l.3-.87c1.54.16 3.03-.33 4.2-1.35z" transform="rotate(32.007 1761.56 5378.229) scale(1.25)" fill="#cb2625" filter="url(#c)"/><path d="M151.7 262.39l.74-.57c1.67-.46 3.23-.2 4.67.78l.04.4c-1.83-.04-3.68-.13-5.45-.61z" transform="rotate(32.007 1761.56 5378.229) scale(1.25)" fill="#d05e5a" filter="url(#c)"/><path d="M157.11 262.6c1.03-1.25 4.49-1.28 4.57.6-1.51-.04-3.02-.1-4.53-.2l-.04-.4z" transform="rotate(32.007 1761.56 5378.229) scale(1.25)" fill="#d59993" filter="url(#c)"/><path d="M114.15 265.91c-1.56-2.18 2.28-3.44 4.01-3.11-.37 1.2-.75 2.41-1.12 3.62-.72-.13-2.16-.39-2.89-.51z" transform="rotate(32.007 1761.56 5378.229) scale(1.25)" fill="#d7b2ab" filter="url(#c)"/><path d="M118.16 262.8c1.27-.08 2.52.05 3.74.38l.33.92-.97.06c-1.57-.7-2.39-.21-2.45 1.46-.44.2-1.33.6-1.77.8.37-1.21.75-2.42 1.12-3.62z" transform="rotate(32.007 1761.56 5378.229) scale(1.25)" fill="#d48d87" filter="url(#c)"/><path d="M121.9 263.18c3.75-.23 7.51-.39 11.27-.32v1c-.74.03-2.22.08-2.95.11-1.68.03-3.35.05-5.02.12-.75 0-2.23.01-2.97.01l-.33-.92z" transform="rotate(32.007 1761.56 5378.229) scale(1.25)" fill="#d06561" filter="url(#c)"/><path d="M133.17 262.86l2 .08c1.74-.03 5.2-.1 6.93-.13l.78.52-.3.87c-1.64-.09-4.9-.28-6.54-.37-.72.01-2.16.02-2.87.03v-1z" transform="rotate(32.007 1761.56 5378.229) scale(1.25)" fill="#ce4542" filter="url(#c)"/><path d="M161.68 263.2c1.61-.59 3.77-.99 5.31 0l-.04.94c-1.8.01-3.52-.62-5.27-.94z" transform="rotate(32.007 1761.56 5378.229) scale(1.25)" fill="#cf5b57" filter="url(#c)"/><path d="M166.99 263.2c4.84.58 12.65-2.06 16.14.76-3.47.11-6.91.24-10.38.19-1.93-.04-3.87.03-5.8-.01l.04-.94z" transform="rotate(32.007 1761.56 5378.229) scale(1.25)" fill="#d49690" filter="url(#c)"/><path d="M118.81 265.62c.06-1.67.88-2.16 2.45-1.46-.14.45-.42 1.37-.56 1.82l-1.89-.36z" transform="rotate(32.007 1761.56 5378.229) scale(1.25)" fill="#d16e69" filter="url(#c)"/><path d="M121.26 264.16l.97-.06c.74 0 2.22-.01 2.97-.01-.17.46-.5 1.4-.66 1.87-1.28.01-2.56.02-3.84.02.14-.45.42-1.37.56-1.82z" transform="rotate(32.007 1761.56 5378.229) scale(1.25)" fill="#ce4845" filter="url(#c)"/><path d="M125.2 264.09c1.67-.07 3.34-.09 5.02-.12-.41 2.88-3.66 1.73-5.68 1.99.16-.47.49-1.41.66-1.87z" transform="rotate(32.007 1761.56 5378.229) scale(1.25)" fill="#cc3230" filter="url(#c)"/><path d="M130.22 263.97c.73-.03 2.21-.08 2.95-.11.71-.01 2.15-.02 2.87-.03-4.49 6.81 7.68 1.51 8.42 6.8 12.01 5.21 26.15 5.23 38.83 2.97-.82.79-1.63 1.6-2.41 2.43 29.75 6.34 60.67 6.44 89.96 14.89-10.04-1.8-6.2 3.28-.6 4.8-5.13.02-10.44-.42-15.64-.07-10.95-1.82-22.08.09-32.72-3.71-4.02-.96-7.97-2.18-12-3.07-12.9-1.62-21.86-8.57-36.49-8.88-1.47 6.55-14.57 1.84-20.94-.63-13.74-7.27-33.15 6.88-43.5-7.52 3.3-2.06 7.18-2.89 10.62-4.65l1.13-1.21c1.28 0 2.56-.01 3.84-.02 2.02-.26 5.27.89 5.68-1.99z" transform="rotate(32.007 1761.56 5378.229) scale(1.25)" fill="#cb2221" filter="url(#c)"/><path d="M136.04 263.83c1.64.09 4.9.28 6.54.37 7.56.83 14.54 6.07 22.31 3.82 12.53-3.56 25.97 7.45 37.58.33l1.72-.64c1.25.16 2.5.26 3.77.29l.84.36c1.33.82 2.92.84 4.42.58l2.68.4c1.27.71 2.74.88 4.16.64.4.11 1.2.32 1.6.43l.68.45c17.4 4-2.4 3.57-9.48 1.25-4.8 5.53 23.14 4.95 8.94 7.33-12.83-1.87-25.79-3.26-38.51-5.84-12.68 2.26-26.82 2.24-38.83-2.97-.74-5.29-12.91.01-8.42-6.8z" transform="rotate(32.007 1761.56 5378.229) scale(1.25)" fill="#ca1e1d" filter="url(#c)"/><path d="M172.75 264.15c3.47.05 6.91-.08 10.38-.19.74.06 2.23.17 2.98.22l.19.91c-4.53-.15-9.02-.83-13.55-.94z" transform="rotate(32.007 1761.56 5378.229) scale(1.25)" fill="#cf5753" filter="url(#c)"/><path d="M186.11 264.18c.86-.82 3.06-.64 3.39.61l-.55.42-2.65-.12-.19-.91z" transform="rotate(32.007 1761.56 5378.229) scale(1.25)" fill="#d59992" filter="url(#c)"/><path d="M188.95 265.21l.55-.42c.62.18 1.86.53 2.49.71l.11.54c-1.22.33-2.27.06-3.15-.83z" transform="rotate(32.007 1761.56 5378.229) scale(1.25)" fill="#cf5b57" filter="url(#c)"/><path d="M191.99 265.5c1.34-.97 5.09-1.41 5.58.33l-1.52.56c-1.29-.66-2.61-.77-3.95-.35l-.11-.54z" transform="rotate(32.007 1761.56 5378.229) scale(1.25)" fill="#d59993" filter="url(#c)"/><path d="M103.43 268.77c-.04-1.54 5.99-3.24 8.64-2.63l.32.77-.85.11c-1.65.01-3.38.31-4.54 1.59-.67.05-2 .13-2.66.17l-.91-.01z" transform="rotate(32.007 1761.56 5378.229) scale(1.25)" fill="#d5a099" filter="url(#c)"/><path d="M112.07 266.14c.52-.06 1.56-.18 2.08-.23.73.12 2.17.38 2.89.51l-.03.45c-.68.12-2.03.37-2.71.5-.48-.12-1.43-.34-1.91-.46l-.32-.77z" transform="rotate(32.007 1761.56 5378.229) scale(1.25)" fill="#d16a66" filter="url(#c)"/><path d="M117.04 266.42c.44-.2 1.33-.6 1.77-.8l1.89.36-1.13 1.21-2.56-.32.03-.45z" transform="rotate(32.007 1761.56 5378.229) scale(1.25)" fill="#cd4441" filter="url(#c)"/><path d="M192.1 266.04c1.34-.42 2.66-.31 3.95.35l.12.57c-1.44.61-3.03.21-4.07-.92z" transform="rotate(32.007 1761.56 5378.229) scale(1.25)" fill="#cd413e" filter="url(#c)"/><path d="M196.05 266.39l1.52-.56 3.43.4.01.4c-1.34.19-2.67.39-4 .6l-.84-.27-.12-.57z" transform="rotate(32.007 1761.56 5378.229) scale(1.25)" fill="#d16e6a" filter="url(#c)"/><path d="M201 266.23c.96-.73 3.49-.96 3.64.64l-.6.42c-.76-.17-2.28-.5-3.03-.66l-.01-.4z" transform="rotate(32.007 1761.56 5378.229) scale(1.25)" fill="#d4948e" filter="url(#c)"/><path d="M107 268.61c1.16-1.28 2.89-1.58 4.54-1.59-.51.51-1.52 1.53-2.03 2.04l-.8.19c-.43-.16-1.29-.48-1.71-.64z" transform="rotate(32.007 1761.56 5378.229) scale(1.25)" fill="#d1726e" filter="url(#c)"/><path d="M111.54 267.02l.85-.11c.48.12 1.43.34 1.91.46-1.36 1.1-3.04 1.67-4.79 1.69.51-.51 1.52-1.53 2.03-2.04z" transform="rotate(32.007 1761.56 5378.229) scale(1.25)" fill="#ce4b48" filter="url(#c)"/><path d="M114.3 267.37c.68-.13 2.03-.38 2.71-.5l2.56.32c-3.44 1.76-7.32 2.59-10.62 4.65 10.35 14.4 29.76.25 43.5 7.52 6.37 2.47 19.47 7.18 20.94.63 14.63.31 23.59 7.26 36.49 8.88-3.88-1.65-9.55 1.39-4.74 4.25 10.91 2.23 21.64 5.81 31.91 10.26-1.46.24-2.85.77-4.29 1.05-3.85-.47-7.67-1.18-11.53-1.53-8.23-2.21-16.12-5.62-24.43-7.7 8.81-7.68-13.35-3-16.93-8.01-3.97-3.98-25.63-7.16-16.87.16 10.82 1.52 21.04 5.72 31.01 10.07-1.1.34-2.2.67-3.3.98-7.25-1.12-14.48-2.37-21.75-3.32 3.9-7.67-20.08.35-13.33-8.83-2.85-3.97-24.1 2.98-20.38-3.72-11.24-5.04-25.48 5.44-34.06-3.56-.68-.01-2.03-.04-2.71-.05-.45-.01-1.36-.02-1.81-.03-.44 0-1.3-.01-1.73-.01-3.26-3.5 4.41-3.68 7.13-3.54h.92c4.17 1.18 2.09-3.56 1.21-5.71 1.39 1.09 3.18.44 4.51-.38l.8-.19c1.75-.02 3.43-.59 4.79-1.69z" transform="rotate(32.007 1761.56 5378.229) scale(1.25)" fill="#cb2826" filter="url(#c)"/><path d="M197.01 267.23c1.33-.21 2.66-.41 4-.6.75.16 2.27.49 3.03.66l.15.42-1.72.64c-1.85-.18-3.71-.48-5.46-1.12z" transform="rotate(32.007 1761.56 5378.229) scale(1.25)" fill="#cd3c3a" filter="url(#c)"/><path d="M204.04 267.29l.6-.42 3.34.52-.02.61c-1.27-.03-2.52-.13-3.77-.29l-.15-.42z" transform="rotate(32.007 1761.56 5378.229) scale(1.25)" fill="#d1645f" filter="url(#c)"/><path d="M207.98 267.39c1.31-1.05 2.13-.93 2.46.34-.41.16-1.23.47-1.64.63l-.84-.36.02-.61z" transform="rotate(32.007 1761.56 5378.229) scale(1.25)" fill="#d48b86" filter="url(#c)"/><path d="M208.8 268.36c.41-.16 1.23-.47 1.64-.63.65.18 1.95.53 2.6.71l.18.5c-1.5.26-3.09.24-4.42-.58z" transform="rotate(32.007 1761.56 5378.229) scale(1.25)" fill="#cf4f4c" filter="url(#c)"/><path d="M213.04 268.44c.97-.85 4.26-1.23 4.39.19-.38.18-1.15.53-1.53.71l-2.68-.4-.18-.5z" transform="rotate(32.007 1761.56 5378.229) scale(1.25)" fill="#d3817c" filter="url(#c)"/><path d="M96.82 273.92c.26-1.93-.55-6 2.64-4.95-.62 1.86.55 5.94-2.64 4.95z" transform="rotate(32.007 1761.56 5378.229) scale(1.25)" fill="#d7b5ad" filter="url(#c)"/><path d="M99.46 268.97c.75-.05 2.26-.14 3.01-.19-1.78 1.71-1.29 4.27-1.35 6.49-1.68-.14-3.35-.29-5.03-.42l-.25-.94.98.01c3.19.99 2.02-3.09 2.64-4.95z" transform="rotate(32.007 1761.56 5378.229) scale(1.25)" fill="#d4908a" filter="url(#c)"/><path d="M102.47 268.78l.96-.01.91.01-.14.85c-2.96.87-1.68 3.51-1.21 5.71h-.92l-.95-.07c.06-2.22-.43-4.78 1.35-6.49z" transform="rotate(32.007 1761.56 5378.229) scale(1.25)" fill="#d16763" filter="url(#c)"/><path d="M104.34 268.78c.66-.04 1.99-.12 2.66-.17.42.16 1.28.48 1.71.64-1.33.82-3.12 1.47-4.51.38l.14-.85z" transform="rotate(32.007 1761.56 5378.229) scale(1.25)" fill="#ce4441" filter="url(#c)"/><path d="M215.9 269.34c.38-.18 1.15-.53 1.53-.71.62.21 1.87.62 2.49.83l.14.52c-1.42.24-2.89.07-4.16-.64z" transform="rotate(32.007 1761.56 5378.229) scale(1.25)" fill="#cf504d" filter="url(#c)"/><path d="M219.92 269.46c1.61-1.14 4.88-.98 6.01.36a7.365 7.365 0 00-4.27.59c-.4-.11-1.2-.32-1.6-.43l-.14-.52z" transform="rotate(32.007 1761.56 5378.229) scale(1.25)" fill="#d3847e" filter="url(#c)"/><path d="M102.99 275.34c-.47-2.2-1.75-4.84 1.21-5.71.88 2.15 2.96 6.89-1.21 5.71z" transform="rotate(32.007 1761.56 5378.229) scale(1.25)" fill="#ce413e" filter="url(#c)"/><path d="M221.66 270.41c1.36-.62 2.78-.82 4.27-.59l.86.53.1.45c-1.51.19-3.05.32-4.55.06l-.68-.45z" transform="rotate(32.007 1761.56 5378.229) scale(1.25)" fill="#ce4e4a" filter="url(#c)"/><path d="M226.79 270.35c1.44-.8 5.3-.94 5.75.29-.71.17-2.12.51-2.82.68-.71-.13-2.13-.39-2.83-.52l-.1-.45z" transform="rotate(32.007 1761.56 5378.229) scale(1.25)" fill="#d27e79" filter="url(#c)"/><path d="M222.34 270.86c1.5.26 3.04.13 4.55-.06.7.13 2.12.39 2.83.52 1.75.63 3.62.92 5.48.62l2.63.28c.39.2 1.16.6 1.55.8-4.25 5.93 7.1 5.97 9.51 10.22-9.19.05-18.19-2.3-27.09-3.8 14.2-2.38-13.74-1.8-8.94-7.33 7.08 2.32 26.88 2.75 9.48-1.25z" transform="rotate(32.007 1761.56 5378.229) scale(1.25)" fill="#cb2321" filter="url(#c)"/><path d="M229.72 271.32c.7-.17 2.11-.51 2.82-.68.63.2 1.88.61 2.51.82l.15.48c-1.86.3-3.73.01-5.48-.62z" transform="rotate(32.007 1761.56 5378.229) scale(1.25)" fill="#ce4e4b" filter="url(#c)"/><path d="M235.05 271.46c.86-.99 4.43-1.39 4.27.21-.37.14-1.12.42-1.49.55l-2.63-.28-.15-.48z" transform="rotate(32.007 1761.56 5378.229) scale(1.25)" fill="#d3837d" filter="url(#c)"/><path d="M237.83 272.22c.37-.13 1.12-.41 1.49-.55.92.2 2.77.6 3.7.8l.05.4c-1.24.01-2.47.07-3.69.15-.39-.2-1.16-.6-1.55-.8z" transform="rotate(32.007 1761.56 5378.229) scale(1.25)" fill="#ce514d" filter="url(#c)"/><path d="M243.02 272.47c1.03-.89 4.2-1.42 4.32.42l-.51.4c-1.26-.13-2.51-.27-3.76-.42l-.05-.4z" transform="rotate(32.007 1761.56 5378.229) scale(1.25)" fill="#d38a84" filter="url(#c)"/><path d="M239.38 273.02c1.22-.08 2.45-.14 3.69-.15 1.25.15 2.5.29 3.76.42 1.4.55 2.9.8 4.41.76.43.08 1.29.23 1.72.31 1 .65 2.08.87 3.26.67l.78.34c.96.87 2.03 1.02 3.22.48.68.09 2.03.29 2.7.38l2.35.64c.66.09 1.99.28 2.66.38.99.75 2.1.99 3.32.73.42.1 1.26.31 1.68.42 1.33.58 2.78.79 4.24.7l.81.29c1.29.71 2.79.78 4.23.54l1.69.24 1.22 1.02c3.25 4.78 8.53 7.08 12.91 11.02-11.41-1.34-19.31-11.71-32.06-10.51 2.83 2.04 7.26 4.75.8 4.65-5.96-1.02-11.93-2.01-17.88-3.11-2.41-4.25-13.76-4.29-9.51-10.22z" transform="rotate(32.007 1761.56 5378.229) scale(1.25)" fill="#ca1e1c" filter="url(#c)"/><path d="M246.83 273.29l.51-.4 3.76.56.14.6c-1.51.04-3.01-.21-4.41-.76z" transform="rotate(32.007 1761.56 5378.229) scale(1.25)" fill="#d05854" filter="url(#c)"/><path d="M251.1 273.45c1.15-1.12 1.96-.99 2.44.4l-.58.51c-.43-.08-1.29-.23-1.72-.31l-.14-.6z" transform="rotate(32.007 1761.56 5378.229) scale(1.25)" fill="#d4918b" filter="url(#c)"/><path d="M85.99 284.55c4.02-4.74-.69-13.73 9.85-10.64l.25.94c-.48-.01-1.44-.04-1.92-.05-.66.11-1.99.35-2.65.47-3.07-.2-2.64 3.62.21 3.3l.78.18c-.47 1.3-1.09 2.54-1.85 3.7-1.81-.21-3.86.28-4.67 2.1z" transform="rotate(32.007 1761.56 5378.229) scale(1.25)" fill="#d7b4ad" filter="url(#c)"/><path d="M183.29 273.6c12.72 2.58 25.68 3.97 38.51 5.84 8.9 1.5 17.9 3.85 27.09 3.8 5.95 1.1 11.92 2.09 17.88 3.11 6.51 1.57 13.02 3.23 19.44 5.19-4.97.29-10.31.54-15.37-.62-29.29-8.45-60.21-8.55-89.96-14.89.78-.83 1.59-1.64 2.41-2.43z" transform="rotate(32.007 1761.56 5378.229) scale(1.25)" fill="#cb2927" filter="url(#c)"/><path d="M252.96 274.36l.58-.51c.63.13 1.89.38 2.52.51l.16.67c-1.18.2-2.26-.02-3.26-.67z" transform="rotate(32.007 1761.56 5378.229) scale(1.25)" fill="#d05956" filter="url(#c)"/><path d="M256.06 274.36c1.23-.98 2.12-.84 2.67.4-.43.15-1.3.46-1.73.61l-.78-.34-.16-.67z" transform="rotate(32.007 1761.56 5378.229) scale(1.25)" fill="#d48b85" filter="url(#c)"/><path d="M91.73 278.57c-2.85.32-3.28-3.5-.21-3.3.11 1.09.18 2.19.21 3.3z" transform="rotate(32.007 1761.56 5378.229) scale(1.25)" fill="#d59690" filter="url(#c)"/><path d="M91.52 275.27c.66-.12 1.99-.36 2.65-.47-1.06 1.1-.95 2.57-.85 3.98l-.81-.03-.78-.18c-.03-1.11-.1-2.21-.21-3.3z" transform="rotate(32.007 1761.56 5378.229) scale(1.25)" fill="#d27570" filter="url(#c)"/><path d="M94.17 274.8c.48.01 1.44.04 1.92.05 1.68.13 3.35.28 5.03.42l.95.07c-2.72-.14-10.39.04-7.13 3.54-.41-.03-1.22-.07-1.62-.1-.1-1.41-.21-2.88.85-3.98z" transform="rotate(32.007 1761.56 5378.229) scale(1.25)" fill="#ce4c49" filter="url(#c)"/><path d="M257 275.37c.43-.15 1.3-.46 1.73-.61l1.23.48.26.61c-1.19.54-2.26.39-3.22-.48z" transform="rotate(32.007 1761.56 5378.229) scale(1.25)" fill="#ce4643" filter="url(#c)"/><path d="M259.96 275.24c.94-.8 3.47-.85 3.7.61l-.74.38c-.67-.09-2.02-.29-2.7-.38l-.26-.61z" transform="rotate(32.007 1761.56 5378.229) scale(1.25)" fill="#d27d77" filter="url(#c)"/><path d="M262.92 276.23l.74-.38 1.3.37.31.65-2.35-.64z" transform="rotate(32.007 1761.56 5378.229) scale(1.25)" fill="#cf4a48" filter="url(#c)"/><path d="M264.96 276.22c.88-.86 3.34-.86 3.54.6l-.57.43c-.67-.1-2-.29-2.66-.38l-.31-.65z" transform="rotate(32.007 1761.56 5378.229) scale(1.25)" fill="#d27772" filter="url(#c)"/><path d="M267.93 277.25l.57-.43c.65.14 1.94.41 2.59.55l.16.61c-1.22.26-2.33.02-3.32-.73z" transform="rotate(32.007 1761.56 5378.229) scale(1.25)" fill="#cf4f4c" filter="url(#c)"/><path d="M271.09 277.37c.69-.84 3.48-1.14 3.35.31-.38.18-1.13.54-1.51.72-.42-.11-1.26-.32-1.68-.42l-.16-.61z" transform="rotate(32.007 1761.56 5378.229) scale(1.25)" fill="#d3837e" filter="url(#c)"/><path d="M272.93 278.4c.38-.18 1.13-.54 1.51-.72l2.57.76.16.66c-1.46.09-2.91-.12-4.24-.7z" transform="rotate(32.007 1761.56 5378.229) scale(1.25)" fill="#cf5451" filter="url(#c)"/><path d="M277.01 278.44c1.2-1.12 2.03-1.04 2.49.23l-1.52.72-.81-.29-.16-.66z" transform="rotate(32.007 1761.56 5378.229) scale(1.25)" fill="#d38681" filter="url(#c)"/><path d="M92.51 278.75l.81.03c.4.03 1.21.07 1.62.1 2.38 1.58.76 3.99-1.77 3-.43.08-1.27.24-1.7.33l-.81.24c.76-1.16 1.38-2.4 1.85-3.7z" transform="rotate(32.007 1761.56 5378.229) scale(1.25)" fill="#d59993" filter="url(#c)"/><path d="M94.94 278.88c.43 0 1.29.01 1.73.01.88.81 1.11 1.78.69 2.92l-2.49.04c-.43.01-1.28.02-1.7.03 2.53.99 4.15-1.42 1.77-3z" transform="rotate(32.007 1761.56 5378.229) scale(1.25)" fill="#d27a75" filter="url(#c)"/><path d="M96.67 278.89c.45.01 1.36.02 1.81.03 3.08 1.17 1.76 3.48-1.12 2.89.42-1.14.19-2.11-.69-2.92z" transform="rotate(32.007 1761.56 5378.229) scale(1.25)" fill="#d05e5b" filter="url(#c)"/><path d="M98.48 278.92c.68.01 2.03.04 2.71.05 3.41 1.62.82 4.65-2.02 4.33-.96 3.93 8.16.35 5.8 3.81-2.75 4.62 6.59 1.03 7.32 5.8-2.05.08-4.09-.02-6.14 0-1.99-.08-3.98.03-5.97.06-7.09-1.36-5.16-6.91-5.31-11.12l2.49-.04c2.88.59 4.2-1.72 1.12-2.89z" transform="rotate(32.007 1761.56 5378.229) scale(1.25)" fill="#cd3e3c" filter="url(#c)"/><path d="M101.19 278.97c8.58 9 22.82-1.48 34.06 3.56-3.72 6.7 17.53-.25 20.38 3.72-6.75 9.18 17.23 1.16 13.33 8.83-5.34-.67-10.73-.63-16.1-.87-1.68-.45-3.38-1.03-5.15-.87 1.79-.01 3.71-.04 5.28-1.01-13.32-2.72-26.55-7.99-40.37-6.77-8.88 7.08 14.68 1.73 15.83 5.05-1.28 3.9 6.13 1.33 7.96 2.67-6.46 1.44-12.83-.3-19.26-.61-1.62.08-3.24.21-4.86.24-.73-4.77-10.07-1.18-7.32-5.8 2.36-3.46-6.76.12-5.8-3.81 2.84.32 5.43-2.71 2.02-4.33z" transform="rotate(32.007 1761.56 5378.229) scale(1.25)" fill="#cc302e" filter="url(#c)"/><path d="M277.98 279.39l1.52-.72c.63.17 1.9.5 2.53.66l.18.6c-1.44.24-2.94.17-4.23-.54z" transform="rotate(32.007 1761.56 5378.229) scale(1.25)" fill="#ce4d4a" filter="url(#c)"/><path d="M282.03 279.33c1.21-1.1 2.07-.96 2.57.4l-.7.44-1.69-.24-.18-.6z" transform="rotate(32.007 1761.56 5378.229) scale(1.25)" fill="#d27e79" filter="url(#c)"/><path d="M283.9 280.17l.7-.44 1.1.46.17.69-.75.31-1.22-1.02z" transform="rotate(32.007 1761.56 5378.229) scale(1.25)" fill="#ce423f" filter="url(#c)"/><path d="M285.7 280.19c.97-.84 3.92-.65 3.84.85-1.23 0-2.45-.06-3.67-.16l-.17-.69z" transform="rotate(32.007 1761.56 5378.229) scale(1.25)" fill="#d16e6a" filter="url(#c)"/><path d="M285.12 281.19l.75-.31c1.22.1 2.44.16 3.67.16l.97.18c1.81.44 3.63.82 5.46 1.18 1.34.59 2.81.74 4.27.58.65.11 1.94.32 2.59.43 1.72.49 3.52.72 5.32.57.66.1 1.99.31 2.66.41 1.73.54 3.54.76 5.35.58 1.21.11 2.43.23 3.64.35 1.74.52 3.55.79 5.37.7l2.66.4c1.76.41 3.55.64 5.36.63.65.09 1.95.25 2.59.34 1.64.15 3.27.39 4.84.91 11.1 6.32 25.46 1.72 37.6 5.45-9.83.33-19.65.28-29.47.05-9.54 2.62-19.4 2.3-29.05.15-7.11-1.68-14.43-1.52-21.67-1.74-4.38-3.94-9.66-6.24-12.91-11.02z" transform="rotate(32.007 1761.56 5378.229) scale(1.25)" fill="#ca1918" filter="url(#c)"/><path d="M290.51 281.22c1.57-.58 5.45-1.37 5.93.77l-.47.41c-1.83-.36-3.65-.74-5.46-1.18z" transform="rotate(32.007 1761.56 5378.229) scale(1.25)" fill="#d16c68" filter="url(#c)"/><path d="M85.99 284.55c.81-1.82 2.86-2.31 4.67-2.1-1.25 1.29-2.72 2.4-4.51 2.8l-.16-.7z" transform="rotate(32.007 1761.56 5378.229) scale(1.25)" fill="#d59c96" filter="url(#c)"/><path d="M90.66 282.45l.81-.24c-.78 2.55-2.88 3.52-5.37 3.81l.05-.77c1.79-.4 3.26-1.51 4.51-2.8z" transform="rotate(32.007 1761.56 5378.229) scale(1.25)" fill="#d3827d" filter="url(#c)"/><path d="M91.47 282.21c.43-.09 1.27-.25 1.7-.33-1.65 3.34-2.33 7.23-.04 10.47-1.39-1.53-2.55-3.41-4.57-4.17-.92-.5-1.85-.99-2.78-1.45l.32-.71c2.49-.29 4.59-1.26 5.37-3.81z" transform="rotate(32.007 1761.56 5378.229) scale(1.25)" fill="#d16a66" filter="url(#c)"/><path d="M93.17 281.88c.42-.01 1.27-.02 1.7-.03.15 4.21-1.78 9.76 5.31 11.12-1.88.06-3.76.12-5.63.29l-.86-.27-.56-.64c-2.29-3.24-1.61-7.13.04-10.47z" transform="rotate(32.007 1761.56 5378.229) scale(1.25)" fill="#cf524e" filter="url(#c)"/><path d="M265.97 281.7c12.75-1.2 20.65 9.17 32.06 10.51 7.24.22 14.56.06 21.67 1.74 13.78 5.06-9.78 2.75-15.89 2.1-8.96-.64-17.94-1.08-26.73-3.07-1.96-1.26-4.03-1.95-6.24-2.06 5.06 1.16 10.4.91 15.37.62-6.42-1.96-12.93-3.62-19.44-5.19 6.46.1 2.03-2.61-.8-4.65z" transform="rotate(32.007 1761.56 5378.229) scale(1.25)" fill="#cb2221" filter="url(#c)"/><path d="M295.97 282.4l.47-.41 3.68.48.12.51c-1.46.16-2.93.01-4.27-.58z" transform="rotate(32.007 1761.56 5378.229) scale(1.25)" fill="#ce4743" filter="url(#c)"/><path d="M300.12 282.47c.86-.85 4.33-1.28 4.14.25-.36.17-1.08.52-1.43.69-.65-.11-1.94-.32-2.59-.43l-.12-.51z" transform="rotate(32.007 1761.56 5378.229) scale(1.25)" fill="#d2746f" filter="url(#c)"/><path d="M163 287.35c-8.76-7.32 12.9-4.14 16.87-.16 3.58 5.01 25.74.33 16.93 8.01 8.31 2.08 16.2 5.49 24.43 7.7-10.25-.96-20.44-2.41-30.52-4.5 1.1-.31 2.2-.64 3.3-.98-9.97-4.35-20.19-8.55-31.01-10.07z" transform="rotate(32.007 1761.56 5378.229) scale(1.25)" fill="#cc2f2d" filter="url(#c)"/><path d="M302.83 283.41c.35-.17 1.07-.52 1.43-.69.95.2 2.86.6 3.82.79l.07.47c-1.8.15-3.6-.08-5.32-.57z" transform="rotate(32.007 1761.56 5378.229) scale(1.25)" fill="#ce4644" filter="url(#c)"/><path d="M308.08 283.51c.86-.86 4.39-1.37 4.18.22-.37.16-1.09.5-1.45.66-.67-.1-2-.31-2.66-.41l-.07-.47z" transform="rotate(32.007 1761.56 5378.229) scale(1.25)" fill="#d1716d" filter="url(#c)"/><path d="M310.81 284.39c.36-.16 1.08-.5 1.45-.66.95.19 2.87.59 3.83.78l.07.46c-1.81.18-3.62-.04-5.35-.58z" transform="rotate(32.007 1761.56 5378.229) scale(1.25)" fill="#cd403d" filter="url(#c)"/><path d="M316.09 284.51c.96-.98 4.16-1.42 4.17.46l-.46.35c-1.21-.12-2.43-.24-3.64-.35l-.07-.46z" transform="rotate(32.007 1761.56 5378.229) scale(1.25)" fill="#d05c59" filter="url(#c)"/><path d="M112.62 285.56c13.82-1.22 27.05 4.05 40.37 6.77-1.57.97-3.49 1-5.28 1.01-3.77-.04-7.54-.06-11.3-.06-1.83-1.34-9.24 1.23-7.96-2.67-1.15-3.32-24.71 2.03-15.83-5.05z" transform="rotate(32.007 1761.56 5378.229) scale(1.25)" fill="#cb2826" filter="url(#c)"/><path d="M319.8 285.32l.46-.35c1.74-.61 3.37-.43 4.88.55l.03.5c-1.82.09-3.63-.18-5.37-.7z" transform="rotate(32.007 1761.56 5378.229) scale(1.25)" fill="#cd3b39" filter="url(#c)"/><path d="M325.14 285.52c.66-1.16 3.39-1.21 3.14.51l-.45.39-2.66-.4-.03-.5z" transform="rotate(32.007 1761.56 5378.229) scale(1.25)" fill="#d05d59" filter="url(#c)"/><path d="M327.83 286.42l.45-.39c1.73-.67 3.36-.51 4.88.49l.03.53c-1.81.01-3.6-.22-5.36-.63z" transform="rotate(32.007 1761.56 5378.229) scale(1.25)" fill="#cd3e3c" filter="url(#c)"/><path d="M333.16 286.52c.63-1.27 3.43-1.09 3.08.62l-.46.25c-.64-.09-1.94-.25-2.59-.34l-.03-.53z" transform="rotate(32.007 1761.56 5378.229) scale(1.25)" fill="#d16864" filter="url(#c)"/><path d="M85.78 286.73c.93.46 1.86.95 2.78 1.45.83 2.53 2.24 4.65 5.13 4.81l.86.27-.76.48c-1.5.43-3.48.61-4.77-.4-1.01-1.94-2.01-3.88-2.95-5.84l-.29-.77z" transform="rotate(32.007 1761.56 5378.229) scale(1.25)" fill="#d49791" filter="url(#c)"/><path d="M335.78 287.39l.46-.25c1.79-.17 4.16-1.28 5.7.02l-.45.84-.87.3c-1.57-.52-3.2-.76-4.84-.91z" transform="rotate(32.007 1761.56 5378.229) scale(1.25)" fill="#cd4441" filter="url(#c)"/><path d="M341.94 287.16c4.7-.84 8.28-.5 10.75 1.03l-1.02-.01c-3.43-.05-6.78-.25-10.18-.18l.45-.84z" transform="rotate(32.007 1761.56 5378.229) scale(1.25)" fill="#cf5a56" filter="url(#c)"/><path d="M86.07 287.5c.94 1.96 1.94 3.9 2.95 5.84-2.69-.78-3.17-3.4-2.95-5.84z" transform="rotate(32.007 1761.56 5378.229) scale(1.25)" fill="#d7b0a9" filter="url(#c)"/><path d="M88.56 288.18c2.02.76 3.18 2.64 4.57 4.17l.56.64c-2.89-.16-4.3-2.28-5.13-4.81z" transform="rotate(32.007 1761.56 5378.229) scale(1.25)" fill="#d3807b" filter="url(#c)"/><path d="M340.62 288.3l.87-.3c3.4-.07 6.75.13 10.18.18 4.18.12 8.36.66 12.56.9 1.49.1 2.99 0 4.49.07 3.1.25 6.25.69 9.38.91 2.54.06 5.09.11 7.66.14 3.41.27 6.86.79 10.31.89 2.55 0 5.1.03 7.67.1 2.84.08 5.72.69 8.59.83 3.22.15 6.51.06 9.75.19l.94.05c2.31.43 4.65.79 7.01 1.1 2.32.27 4.64.55 6.97.86l.88.12c2.35.3 4.71.63 7.08.98 2.31.33 4.64.66 6.99.98 2.28.35 4.57.68 6.89 1.01 2.3.29 4.63.58 6.96.87 2.76.39 5.6.9 8.43 1.12 2.21.42 4.45.68 6.72.76l.25.75c-1.37 1.54-5.91 3.96 1.61 3.28 9.66 1.91 18.59 6.5 28.34 8.01-2.51 5.21 4.01 4.12 8.78 5.73-22.25-1.88-43.75-8.98-65.94-12.02.57-.33 1.72-.98 2.29-1.31 6.57.67 13.11 1.75 19.62 2.87 2.81.87 14.78 1.69 7.47-1.8-33.05-6.87-67.1-11.22-100.8-11.6-1.45-.09-2.91-.1-4.35-.22-12.14-3.73-26.5.87-37.6-5.45z" transform="rotate(32.007 1761.56 5378.229) scale(1.25)" fill="#c90e0d" filter="url(#c)"/><path d="M351.67 288.18l1.02.01c3.72-.01 7.54-.61 11.26.02l.28.87c-4.2-.24-8.38-.78-12.56-.9z" transform="rotate(32.007 1761.56 5378.229) scale(1.25)" fill="#cc3230" filter="url(#c)"/><path d="M363.95 288.21c1.79-.86 5.46-.37 6.66.64-.47.07-1.41.22-1.89.3-1.5-.07-3 .03-4.49-.07l-.28-.87z" transform="rotate(32.007 1761.56 5378.229) scale(1.25)" fill="#cf5653" filter="url(#c)"/><path d="M205.14 293.12c-4.81-2.86.86-5.9 4.74-4.25 4.03.89 7.98 2.11 12 3.07 1.41 2.8 4.17 3.73 7.28 3.81-10.73.61 10.31 9.46 13 2.1-1.35 6.03 11.59 4 9.6 9.48-6.4-.52-12.72-1.7-19-2.9 1.44-.28 2.83-.81 4.29-1.05-10.27-4.45-21-8.03-31.91-10.26z" transform="rotate(32.007 1761.56 5378.229) scale(1.25)" fill="#cc2d2b" filter="url(#c)"/><path d="M368.72 289.15c.48-.08 1.42-.23 1.89-.3 1.78.07 5.34.22 7.12.29l.37.92c-3.13-.22-6.28-.66-9.38-.91z" transform="rotate(32.007 1761.56 5378.229) scale(1.25)" fill="#cc3331" filter="url(#c)"/><path d="M377.73 289.14c2.07.79 9.7-1.76 9.98.96-.49.02-1.46.07-1.95.1-2.57-.03-5.12-.08-7.66-.14l-.37-.92z" transform="rotate(32.007 1761.56 5378.229) scale(1.25)" fill="#cf504d" filter="url(#c)"/><path d="M385.76 290.2c.49-.03 1.46-.08 1.95-.1 2.74-.25 5.47-.24 8.21.01l.15.98c-3.45-.1-6.9-.62-10.31-.89z" transform="rotate(32.007 1761.56 5378.229) scale(1.25)" fill="#cb2b29" filter="url(#c)"/><path d="M395.92 290.11c2.05.58 8.63-1.56 8.8 1.01l-.98.07c-2.57-.07-5.12-.1-7.67-.1l-.15-.98z" transform="rotate(32.007 1761.56 5378.229) scale(1.25)" fill="#ce4744" filter="url(#c)"/><path d="M270.24 295.72c-5.6-1.52-9.44-6.6.6-4.8 2.21.11 4.28.8 6.24 2.06-2.34.1-4.68.25-7.01.45 13.36 6.16 28.51 6.3 42.86 8.53-1.97 3.2-7.6-.2-10.38 2.96-14.47.09-28.58-3.55-42.47-7.21-1.05-.36-2.1-.72-3.14-1.08-.58-.24-1.75-.73-2.34-.98 5.2-.35 10.51.09 15.64.07z" transform="rotate(32.007 1761.56 5378.229) scale(1.25)" fill="#ca1c1b" filter="url(#c)"/><path d="M403.74 291.19l.98-.07c2.38-.1 4.79-.37 7.16.01l.45.89c-2.87-.14-5.75-.75-8.59-.83z" transform="rotate(32.007 1761.56 5378.229) scale(1.25)" fill="#cc2c2a" filter="url(#c)"/><path d="M411.88 291.13c2.64.73 8.66-1.77 10.2 1.08-3.24-.13-6.53-.04-9.75-.19l-.45-.89z" transform="rotate(32.007 1761.56 5378.229) scale(1.25)" fill="#ce4441" filter="url(#c)"/><path d="M221.88 291.94c10.64 3.8 21.77 1.89 32.72 3.71.59.25 1.76.74 2.34.98-15.37 3.2 6.53 6.81 12.17 9.19-2.77.38-5.77.81-7.5 3.27-3.29-.56-6.53-1.37-9.85-1.76 1.99-5.48-10.95-3.45-9.6-9.48-4.33-.74-8.67-1.41-13-2.1-3.11-.08-5.87-1.01-7.28-3.81z" transform="rotate(32.007 1761.56 5378.229) scale(1.25)" fill="#cb2624" filter="url(#c)"/><path d="M423.02 292.26c1.9-1.16 6.08-1.28 7.01 1.1-2.36-.31-4.7-.67-7.01-1.1z" transform="rotate(32.007 1761.56 5378.229) scale(1.25)" fill="#ce403e" filter="url(#c)"/><path d="M94.55 293.26c1.87-.17 3.75-.23 5.63-.29 1.99-.03 3.98-.14 5.97-.06-4.28 5.98 7.03 1.06 9.65 2.26l.97-.05.32.91c-.73.06-2.19.16-2.92.21-3.27-.15-6.59.18-9.81-.49-3.19-.82-6.4-1.47-9.67-1.84l-.9-.17.76-.48z" transform="rotate(32.007 1761.56 5378.229) scale(1.25)" fill="#d16f6b" filter="url(#c)"/><path d="M106.15 292.91c2.05-.02 4.09.08 6.14 0 1.62-.03 3.24-.16 4.86-.24-.34.63-1.01 1.88-1.35 2.5-2.62-1.2-13.93 3.72-9.65-2.26z" transform="rotate(32.007 1761.56 5378.229) scale(1.25)" fill="#cf5754" filter="url(#c)"/><path d="M117.15 292.67c6.43.31 12.8 2.05 19.26.61 3.76 0 7.53.02 11.3.06 1.77-.16 3.47.42 5.15.87 3.59 1.7 7 3.84 10.97 4.65-1.17.04-2.33.1-3.5.18-.46-.06-1.38-.16-1.84-.21-2.54-1.08-5.15-1.95-7.95-1.78-1.61 0-4.84.01-6.46.01-1.7-.02-5.1-.06-6.79-.07-1.52-1.46-3.69-2.7-5.46-.85-5.01-.48-10.02-1.52-15.06-1.02l-.97.05c.34-.62 1.01-1.87 1.35-2.5z" transform="rotate(32.007 1761.56 5378.229) scale(1.25)" fill="#ce4341" filter="url(#c)"/><path d="M270.07 293.43c2.33-.2 4.67-.35 7.01-.45 8.79 1.99 17.77 2.43 26.73 3.07 4.14.69 7.23 3.84 11.2 4.97 3.93.42 7.81 1.14 11.76 1.44 9.59 3.56 16.91-3.06 24.83-6.77l.85.08c.13 9.27-14.03 5.9-19.26 9.06 8.01 1.56 15.91 3.53 23.96 4.92-10.85 1.43-21.41-1.77-32.22-1.63-7.53-.56-14.97-1.81-22.38-3.2 2.78-3.16 8.41.24 10.38-2.96-14.35-2.23-29.5-2.37-42.86-8.53z" transform="rotate(32.007 1761.56 5378.229) scale(1.25)" fill="#ca1716" filter="url(#c)"/><path d="M382.57 293.97c33.7.38 67.75 4.73 100.8 11.6 7.31 3.49-4.66 2.67-7.47 1.8 1.49-.05 2.9-.57 4.27-1.15-25.83-5.15-52-9.04-78.29-10.35-5.02-.31-10.04-.39-15.03-.93-1.44-.28-2.85-.67-4.28-.97z" transform="rotate(32.007 1761.56 5378.229) scale(1.25)" fill="#ca1615" filter="url(#c)"/><path d="M430.03 293.36c1.82-1.38 5.97-1.47 6.97.86-2.33-.31-4.65-.59-6.97-.86z" transform="rotate(32.007 1761.56 5378.229) scale(1.25)" fill="#cc3735" filter="url(#c)"/><path d="M94.69 293.91c3.27.37 6.48 1.02 9.67 1.84-2.91-.4-7.79 1.37-9.67-1.84z" transform="rotate(32.007 1761.56 5378.229) scale(1.25)" fill="#d59f98" filter="url(#c)"/><path d="M152.86 294.21c5.37.24 10.76.2 16.1.87 7.27.95 14.5 2.2 21.75 3.32 10.08 2.09 20.27 3.54 30.52 4.5 3.86.35 7.68 1.06 11.53 1.53 6.28 1.2 12.6 2.38 19 2.9 3.32.39 6.56 1.2 9.85 1.76 4.03.79 8.07 1.5 12.14 2.06 2.46.64 4.93 1.44 7.43 2.03-.37.52-1.11 1.55-1.48 2.06-3.49-.11-18.6-5.23-12.58-.25-3.09-.38-6.17-.79-9.26-1.07-.66-.05-1.97-.16-2.63-.21-1.65-.5-3.36-.81-5.07-1.04a36.87 36.87 0 00-5-1c-1.72-.27-3.41-.7-5.09-1.14-1.64-.56-3.39-.63-5.1-.56l-.82-.22c-1.06-1.18-2.73-1.35-4.06-.55l-.93-.11c-2.82-.43-5.61-.79-8.4-1.3l-.87-.23-6.19-.6c-.66-.06-1.97-.19-2.63-.26-.97-.71-2.06-.96-3.25-.73l-.78-.31a4.518 4.518 0 00-4.07-.64l-.8-.28c-1.6-.83-3.4-1.09-5.17-.84l-.85-.21c-1.56-.21-4.66-.63-6.21-.84l-.82-.25a7.71 7.71 0 00-5.09-.57l-.81-.29a8.06 8.06 0 00-5.33-.66c-.71 0-2.12.01-2.82.02l-1.76-.48c-1.69-.64-3.5-.85-5.3-.72-1.41-.3-2.78-.73-4.18-1.04-3.97-.81-7.38-2.95-10.97-4.65z" transform="rotate(32.007 1761.56 5378.229) scale(1.25)" fill="#cc3633" filter="url(#c)"/><path d="M319.7 293.95c9.65 2.15 19.51 2.47 29.05-.15.95.62 1.9 1.25 2.85 1.89-7.92 3.71-15.24 10.33-24.83 6.77 5.33-1.61-9.78-5.49-11.76-1.44-3.97-1.13-7.06-4.28-11.2-4.97 6.11.65 29.67 2.96 15.89-2.1z" transform="rotate(32.007 1761.56 5378.229) scale(1.25)" fill="#ca1e1d" filter="url(#c)"/><path d="M348.75 293.8c9.82.23 19.64.28 29.47-.05 1.44.12 2.9.13 4.35.22 1.43.3 2.84.69 4.28.97 4.53.76 9.05 1.6 13.5 2.8-8.68.66-17.92.08-26.8-.69-2.52-.15-5.03-.24-7.53-.27-1.15 0-2.29-.01-3.43-.03-3.4-.36-6.75-.72-10.14-.98l-.85-.08c-.95-.64-1.9-1.27-2.85-1.89z" transform="rotate(32.007 1761.56 5378.229) scale(1.25)" fill="#cc3230" filter="url(#c)"/><path d="M437.88 294.34c1.89-1.24 6.17-1.39 7.08.98-2.37-.35-4.73-.68-7.08-.98z" transform="rotate(32.007 1761.56 5378.229) scale(1.25)" fill="#cd3d3a" filter="url(#c)"/><path d="M116.77 295.12c5.04-.5 10.05.54 15.06 1.02-1.9-.58-3.89-.31-5.79.09l-7.04.08-1.91-.28-.32-.91z" transform="rotate(32.007 1761.56 5378.229) scale(1.25)" fill="#cf5350" filter="url(#c)"/><path d="M131.83 296.14c1.77-1.85 3.94-.61 5.46.85-.77-.02-2.31-.04-3.08-.06-.52-.09-1.56-.28-2.08-.38l-.3-.41z" transform="rotate(32.007 1761.56 5378.229) scale(1.25)" fill="#cf5653" filter="url(#c)"/><path d="M386.85 294.94c4.99.54 10.01.62 15.03.93 13.45 5.96-22.16.59-9.45 5.03 4.79.87-3.49.98-5.75 1.63-4.63-.64-9.64-.27-14.08-2.02 2.48-.85 5.28-3.28.95-3.46 8.88.77 18.12 1.35 26.8.69-4.45-1.2-8.97-2.04-13.5-2.8z" transform="rotate(32.007 1761.56 5378.229) scale(1.25)" fill="#cb2827" filter="url(#c)"/><path d="M444.96 295.32c1.87-1.29 6.04-1.34 6.99.98-2.35-.32-4.68-.65-6.99-.98z" transform="rotate(32.007 1761.56 5378.229) scale(1.25)" fill="#cd3a38" filter="url(#c)"/><path d="M114.17 296.24c.73-.05 2.19-.15 2.92-.21l1.91.28v.5c-1.25.89-4.37.94-4.83-.57z" transform="rotate(32.007 1761.56 5378.229) scale(1.25)" fill="#d7aca5" filter="url(#c)"/><path d="M119 296.31l7.04-.08.02.55c-1.77.01-5.3.02-7.06.03v-.5z" transform="rotate(32.007 1761.56 5378.229) scale(1.25)" fill="#d48a84" filter="url(#c)"/><path d="M126.04 296.23c1.9-.4 3.89-.67 5.79-.09l.3.41c-1.97.63-4.07.79-6.07.23l-.02-.55z" transform="rotate(32.007 1761.56 5378.229) scale(1.25)" fill="#d1706c" filter="url(#c)"/><path d="M242.16 297.85c-2.69 7.36-23.73-1.49-13-2.1 4.33.69 8.67 1.36 13 2.1z" transform="rotate(32.007 1761.56 5378.229) scale(1.25)" fill="#cc3432" filter="url(#c)"/><path d="M352.45 295.77c3.39.26 6.74.62 10.14.98-7.42 1.24-8.54 7.84-17.57 7.33 21.31 3.85 46.92 4.6 69.86 6.77.68-5.56-8.13-2.68-11.08-4.59 10.81.94 3.58-3.15-1.14-3.71 15.68-3.98 29.34 7.4 44.72 5.13-.57-1.63-1.66-2.84-.05-4.45 2.95.41 6 .72 8.95 1.27-.57.33-1.72.98-2.29 1.31 22.19 3.04 43.69 10.14 65.94 12.02 4.39.88 8.72 2.2 13.15 2.97 2.3.66 3.12 2.26 2.49 4.54 28.73 5.94 58.17 8.48 86.46 16.61-25.7-3.38-50.93-10.24-76.86-12.02 3.47 3.3 11.31 1.8 15.94 5.07-36.13-4.37-65.16-22.07-100.99-25.31-6.76-2.05-13.75-1.45-20.16 1.35-8.85-.76-15.83-7.17-24.77-7.06 1.36 2.33 12.39 1.71 4.26 3.45 1.81 5.43 13.28 2.28 19.13 4.5.44.46 1.31 1.38 1.74 1.84-11.78-1.31-10.12.39.72 2.16-2.21 3.28-.61 4.66 3.74 4.32-2.61-.48-5.13-.89-7.73-1.14-20.54-7.25-42.76-6.75-64.25-7.99-5.27.14-10.45-.74-15.65-1.37-8.05-1.39-15.95-3.36-23.96-4.92 5.23-3.16 19.39.21 19.26-9.06z" transform="rotate(32.007 1761.56 5378.229) scale(1.25)" fill="#ca1312" filter="url(#c)"/><path d="M401.88 295.87c26.29 1.31 52.46 5.2 78.29 10.35-1.37.58-2.78 1.1-4.27 1.15-6.51-1.12-13.05-2.2-19.62-2.87-2.95-.55-6-.86-8.95-1.27-16.72-1.58-33.66-1.16-50.26-3.48 2.95 6.87-6.7 1.58-10.39 2.78 2.26-.65 10.54-.76 5.75-1.63-12.71-4.44 22.9.93 9.45-5.03z" transform="rotate(32.007 1761.56 5378.229) scale(1.25)" fill="#ca1e1c" filter="url(#c)"/><path d="M451.95 296.3c1.83-1.22 6.14-1.38 6.89 1.01-2.32-.33-4.61-.66-6.89-1.01z" transform="rotate(32.007 1761.56 5378.229) scale(1.25)" fill="#cc3633" filter="url(#c)"/><path d="M119 296.81c1.76-.01 5.29-.02 7.06-.03 2 .56 4.1.4 6.07-.23.52.1 1.56.29 2.08.38l-.22 1.03c-4.31-.74-12.25 1.91-14.99-1.15z" transform="rotate(32.007 1761.56 5378.229) scale(1.25)" fill="#d7b9b1" filter="url(#c)"/><path d="M134.21 296.93c.77.02 2.31.04 3.08.06 1.69.01 5.09.05 6.79.07l.04.94c-3.38.12-6.76.25-10.13-.04l.22-1.03z" transform="rotate(32.007 1761.56 5378.229) scale(1.25)" fill="#d5a49e" filter="url(#c)"/><path d="M144.08 297.06c1.62 0 4.85-.01 6.46-.01l.54.72c-2.29.24-4.67.55-6.96.23l-.04-.94z" transform="rotate(32.007 1761.56 5378.229) scale(1.25)" fill="#d3837e" filter="url(#c)"/><path d="M150.54 297.05c2.8-.17 5.41.7 7.95 1.78-1.32.1-2.64.19-3.96.25a5.82 5.82 0 00-3.45-1.31l-.54-.72z" transform="rotate(32.007 1761.56 5378.229) scale(1.25)" fill="#d05e5a" filter="url(#c)"/><path d="M269.11 305.82c-5.64-2.38-27.54-5.99-12.17-9.19 1.04.36 2.09.72 3.14 1.08 5.82 5.71 14.76 4.65 21.94 7.5 9.12.85 1.14 1.93-1.13 2.2-3.99-.07-7.9-.74-11.78-1.59z" transform="rotate(32.007 1761.56 5378.229) scale(1.25)" fill="#cc2c2a" filter="url(#c)"/><path d="M345.02 304.08c9.03.51 10.15-6.09 17.57-7.33 1.14.02 2.28.03 3.43.03 7.01 13.59 25.85 5.71 37.78 9.48 2.95 1.91 11.76-.97 11.08 4.59-22.94-2.17-48.55-2.92-69.86-6.77z" transform="rotate(32.007 1761.56 5378.229) scale(1.25)" fill="#c90d0d" filter="url(#c)"/><path d="M366.02 296.78c2.5.03 5.01.12 7.53.27 4.33.18 1.53 2.61-.95 3.46 4.44 1.75 9.45 1.38 14.08 2.02 3.69-1.2 13.34 4.09 10.39-2.78 16.6 2.32 33.54 1.9 50.26 3.48-1.61 1.61-.52 2.82.05 4.45-15.38 2.27-29.04-9.11-44.72-5.13 4.72.56 11.95 4.65 1.14 3.71-11.93-3.77-30.77 4.11-37.78-9.48z" transform="rotate(32.007 1761.56 5378.229) scale(1.25)" fill="#ca1716" filter="url(#c)"/><path d="M458.84 297.31c1.8-1.22 6.28-1.46 6.96.87-2.33-.29-4.66-.58-6.96-.87z" transform="rotate(32.007 1761.56 5378.229) scale(1.25)" fill="#cd3936" filter="url(#c)"/><path d="M144.12 298c2.29.32 4.67.01 6.96-.23l.04.55c-1.88 1.44-5.44 1.55-7-.32z" transform="rotate(32.007 1761.56 5378.229) scale(1.25)" fill="#d7b4ad" filter="url(#c)"/><path d="M151.08 297.77c1.29.06 2.44.5 3.45 1.31l-3.41-.76-.04-.55z" transform="rotate(32.007 1761.56 5378.229) scale(1.25)" fill="#d38983" filter="url(#c)"/><path d="M260.08 297.71c13.89 3.66 28 7.3 42.47 7.21 7.41 1.39 14.85 2.64 22.38 3.2 7.11 1.58 17.03.97 22.05 6.15-7.91 1.96-17.97-4.79-19.14 5.01-2.36-.3-4.7-.6-7.04-.91 6.76-.46-4.61-2.67 1.05-6.63-13.82.22-27.31-2.86-40.96-4.33 2.27-.27 10.25-1.35 1.13-2.2-7.18-2.85-16.12-1.79-21.94-7.5z" transform="rotate(32.007 1761.56 5378.229) scale(1.25)" fill="#cb2725" filter="url(#c)"/><path d="M465.8 298.18c2.71.03 6.4-1.12 8.43 1.12-2.83-.22-5.67-.73-8.43-1.12z" transform="rotate(32.007 1761.56 5378.229) scale(1.25)" fill="#cd3533" filter="url(#c)"/><path d="M154.53 299.08c1.32-.06 2.64-.15 3.96-.25.46.05 1.38.15 1.84.21l.05.9c-1.62.8-5.03.01-5.85-.86z" transform="rotate(32.007 1761.56 5378.229) scale(1.25)" fill="#d49690" filter="url(#c)"/><path d="M160.33 299.04c1.17-.08 2.33-.14 3.5-.18 1.4.31 2.77.74 4.18 1.04-1.92-.05-3.84.09-5.75.21-.47-.04-1.41-.13-1.88-.17l-.05-.9z" transform="rotate(32.007 1761.56 5378.229) scale(1.25)" fill="#d05c58" filter="url(#c)"/><path d="M315.01 301.02c1.98-4.05 17.09-.17 11.76 1.44-3.95-.3-7.83-1.02-11.76-1.44z" transform="rotate(32.007 1761.56 5378.229) scale(1.25)" fill="#cb2827" filter="url(#c)"/><path d="M474.23 299.3c1.62-1.32 5.91-1.47 6.72.76-2.27-.08-4.51-.34-6.72-.76z" transform="rotate(32.007 1761.56 5378.229) scale(1.25)" fill="#cd3533" filter="url(#c)"/><path d="M162.26 300.11c1.91-.12 3.83-.26 5.75-.21l.07.42c-1.39 1.17-5.25 1.5-5.82-.21z" transform="rotate(32.007 1761.56 5378.229) scale(1.25)" fill="#d59d96" filter="url(#c)"/><path d="M168.01 299.9c1.8-.13 3.61.08 5.3.72-.39.16-1.15.48-1.53.64-.93-.23-2.77-.71-3.7-.94l-.07-.42z" transform="rotate(32.007 1761.56 5378.229) scale(1.25)" fill="#d0605c" filter="url(#c)"/><path d="M480.95 300.06c1.35-1.02 3.43.02 4.41 1.15l-.03.46c-1.38-.28-2.76-.56-4.13-.86l-.25-.75z" transform="rotate(32.007 1761.56 5378.229) scale(1.25)" fill="#cc2827" filter="url(#c)"/><path d="M171.78 301.26c.38-.16 1.14-.48 1.53-.64l1.76.48-.02.56c-.68.75-3.76 1.08-3.27-.4z" transform="rotate(32.007 1761.56 5378.229) scale(1.25)" fill="#d59e98" filter="url(#c)"/><path d="M175.07 301.1c.7-.01 2.11-.02 2.82-.02l.14.61c-.75-.01-2.24-.03-2.98-.03l.02-.56z" transform="rotate(32.007 1761.56 5378.229) scale(1.25)" fill="#d27671" filter="url(#c)"/><path d="M177.89 301.08a8.06 8.06 0 015.33.66c-1.37.4-2.77.55-4.19.47l-1-.52-.14-.61z" transform="rotate(32.007 1761.56 5378.229) scale(1.25)" fill="#cf504c" filter="url(#c)"/><path d="M482.81 304.09c-7.52.68-2.98-1.74-1.61-3.28 1.37.3 2.75.58 4.13.86 1.13.29 2.27.48 3.44.57 1.29.62 2.7.93 4.13 1.03 1.24.62 2.61.93 4.01 1.01 1.23.61 2.6.92 3.98 1 1.25.6 2.62.89 4.01.96.86.76 1.87 1.09 3.03.98 1.21.67 2.58 1 3.97 1.06 1.24.61 2.6.92 4 .99 1.24.62 2.6.93 4 1.01 1.24.6 2.61.89 4 .96.86.76 1.87 1.09 3.03.98 1.21.67 2.58 1 3.97 1.06 1.24.61 2.6.92 4 1 1.24.6 2.6.89 3.99.96.86.76 1.87 1.09 3.03.98 1.22.68 2.59.99 3.98 1.06 1.23.68 2.63.94 4.04 1.03l5.9 1c1.66.46 3.36.81 5.09.89l.87.1c1.34.56 2.79.82 4.26.78l1.75.16c.95.72 2.02 1.02 3.23.88l.83.17c1.29.59 2.7.88 4.13.91l.83.15c1.63.48 3.31.78 5.01.98 1.63.45 3.3.76 4.99 1.01 1.63.45 3.31.74 5 1 1.63.45 3.3.74 4.99.99 1.64.46 3.32.75 5.01 1 1.64.54 3.36.76 5.08.98 1.48.25 4.46.73 5.95.98 1.63.55 3.34.85 5.07.95 1 .66 2.09.9 3.3.73.42.1 1.28.29 1.7.38 1 .66 2.09.88 3.29.66l1.66.28c1.04.34 2.1.66 3.18.96 1.89.44 3.24 1.93 4.95 2.77-34.26-2.86-69.76-5.69-102.93-16.22-4.43-.77-8.76-2.09-13.15-2.97-4.77-1.61-11.29-.52-8.78-5.73-9.75-1.51-18.68-6.1-28.34-8.01z" transform="rotate(32.007 1761.56 5378.229) scale(1.25)" fill="#c90a0a" filter="url(#c)"/><path d="M485.36 301.21c.87-1.17 3.79-.66 3.41 1.03a19.92 19.92 0 01-3.44-.57l.03-.46z" transform="rotate(32.007 1761.56 5378.229) scale(1.25)" fill="#cc2d2c" filter="url(#c)"/><path d="M179.03 302.21c1.42.08 2.82-.07 4.19-.47l.81.29.12.57c-1.31 1.02-4.37.95-5.12-.39z" transform="rotate(32.007 1761.56 5378.229) scale(1.25)" fill="#d4908a" filter="url(#c)"/><path d="M184.03 302.03c1.72-.4 3.5-.19 5.09.57-1.31.51-2.66.71-4.05.6l-.92-.6-.12-.57z" transform="rotate(32.007 1761.56 5378.229) scale(1.25)" fill="#cf5652" filter="url(#c)"/><path d="M488.77 302.24c1.01-1.24 3.98-.66 4.13 1.03-1.43-.1-2.84-.41-4.13-1.03z" transform="rotate(32.007 1761.56 5378.229) scale(1.25)" fill="#cc2c2b" filter="url(#c)"/><path d="M185.07 303.2c1.39.11 2.74-.09 4.05-.6l.82.25.07.55c-1.15 1.17-4.32 1.29-4.94-.2z" transform="rotate(32.007 1761.56 5378.229) scale(1.25)" fill="#d4958f" filter="url(#c)"/><path d="M189.94 302.85c1.55.21 4.65.63 6.21.84-1.28.5-2.6.78-3.96.84-.55-.28-1.64-.85-2.18-1.13l-.07-.55z" transform="rotate(32.007 1761.56 5378.229) scale(1.25)" fill="#cf5552" filter="url(#c)"/><path d="M492.9 303.27c.94-1.31 3.92-.69 4.01 1.01-1.4-.08-2.77-.39-4.01-1.01z" transform="rotate(32.007 1761.56 5378.229) scale(1.25)" fill="#cc2d2b" filter="url(#c)"/><path d="M192.19 304.53c1.36-.06 2.68-.34 3.96-.84l.85.21.14.59c-1.11 1.11-4.4 1.34-4.95.04z" transform="rotate(32.007 1761.56 5378.229) scale(1.25)" fill="#d38c86" filter="url(#c)"/><path d="M197 303.9c1.77-.25 3.57.01 5.17.84-1.34.45-2.7.58-4.09.39l-.94-.64-.14-.59z" transform="rotate(32.007 1761.56 5378.229) scale(1.25)" fill="#cf5350" filter="url(#c)"/><path d="M415.19 303.98c8.94-.11 15.92 6.3 24.77 7.06-.34.22-1.03.67-1.38.89-5.85-2.22-17.32.93-19.13-4.5 8.13-1.74-2.9-1.12-4.26-3.45z" transform="rotate(32.007 1761.56 5378.229) scale(1.25)" fill="#c90f0e" filter="url(#c)"/><path d="M496.91 304.28c.92-1.32 3.93-.7 3.98 1-1.38-.08-2.75-.39-3.98-1z" transform="rotate(32.007 1761.56 5378.229) scale(1.25)" fill="#cc2d2b" filter="url(#c)"/><path d="M198.08 305.13c1.39.19 2.75.06 4.09-.39l.8.28.18.62c-1.29 1.02-4.42.91-5.07-.51z" transform="rotate(32.007 1761.56 5378.229) scale(1.25)" fill="#d38f89" filter="url(#c)"/><path d="M202.97 305.02c1.39-.45 2.88-.22 4.07.64-.71.15-2.12.44-2.83.59l-1.06-.61-.18-.62z" transform="rotate(32.007 1761.56 5378.229) scale(1.25)" fill="#cf5350" filter="url(#c)"/><path d="M500.89 305.28c.92-1.31 3.95-.76 4.01.96-1.39-.07-2.76-.36-4.01-.96z" transform="rotate(32.007 1761.56 5378.229) scale(1.25)" fill="#cc3230" filter="url(#c)"/><path d="M204.21 306.25c.71-.15 2.12-.44 2.83-.59l.78.31.15.64c-.85.92-3.6 1.05-3.76-.36z" transform="rotate(32.007 1761.56 5378.229) scale(1.25)" fill="#d4958f" filter="url(#c)"/><path d="M207.82 305.97c1.19-.23 2.28.02 3.25.73l-.56.47c-.64-.14-1.91-.42-2.54-.56l-.15-.64z" transform="rotate(32.007 1761.56 5378.229) scale(1.25)" fill="#d06763" filter="url(#c)"/><path d="M261.61 309.09c1.73-2.46 4.73-2.89 7.5-3.27 3.88.85 7.79 1.52 11.78 1.59 13.65 1.47 27.14 4.55 40.96 4.33-5.66 3.96 5.71 6.17-1.05 6.63-8.3-1.12-16.58-2.53-24.93-3.3 3.86-5.24-16.02-5.3-22.12-3.92-4.07-.56-8.11-1.27-12.14-2.06z" transform="rotate(32.007 1761.56 5378.229) scale(1.25)" fill="#cb211f" filter="url(#c)"/><path d="M504.9 306.24c1.42-.96 2.43-.63 3.03.98-1.16.11-2.17-.22-3.03-.98z" transform="rotate(32.007 1761.56 5378.229) scale(1.25)" fill="#cc3230" filter="url(#c)"/><path d="M210.51 307.17l.56-.47c.66.07 1.97.2 2.63.26l.13.53c-.68 1.03-3.33 1.3-3.32-.32z" transform="rotate(32.007 1761.56 5378.229) scale(1.25)" fill="#d59a93" filter="url(#c)"/><path d="M213.7 306.96l6.19.6a8.12 8.12 0 01-3.67.96c-.59-.26-1.79-.78-2.39-1.03l-.13-.53z" transform="rotate(32.007 1761.56 5378.229) scale(1.25)" fill="#d0605c" filter="url(#c)"/><path d="M507.93 307.22c.95-1.27 3.9-.61 3.97 1.06-1.39-.06-2.76-.39-3.97-1.06z" transform="rotate(32.007 1761.56 5378.229) scale(1.25)" fill="#cc3331" filter="url(#c)"/><path d="M216.22 308.52a8.12 8.12 0 003.67-.96l.87.23.47.81c-1.19 1.12-4.2.84-5.01-.08z" transform="rotate(32.007 1761.56 5378.229) scale(1.25)" fill="#d4938d" filter="url(#c)"/><path d="M220.76 307.79c2.79.51 5.58.87 8.4 1.3-2.01-.04-4.02-.03-6.03-.04-.47-.11-1.42-.34-1.9-.45l-.47-.81z" transform="rotate(32.007 1761.56 5378.229) scale(1.25)" fill="#d0605c" filter="url(#c)"/><path d="M324.93 308.12c10.81-.14 21.37 3.06 32.22 1.63 5.2.63 10.38 1.51 15.65 1.37 21.54 1.65 42.8 5.43 64.25 7.99 2.6.25 5.12.66 7.73 1.14 8.25 2.4 20.61.79 26.09 5.49-14.65-1.54-29.29-3.47-43.82-5.89-8.91-2.17-18.39-2.67-27.42-1.3 13.73.6 3.05 2.14 10.65 5.87-9.51-1.4-15.35 3.08-4.49 3.71 4.31.79 8.91 2.98 13.24 1.09 1.18.2 2.37.41 3.56.61-.42.2-1.27.58-1.69.78-7.44.91-15.13.63-22.52-.79-1.12-.25-2.23-.53-3.32-.82-1.53-2.91-5.31-2.33-7.97-3.35 4.07-.64 19.63-2.34 7.9-3.56 5.31-4.35-.19-2.97-4.7-3.3 13.57 5.52-25.84 1.68-7.66 5.87-2.08.57-12.02 1.76-17.2 1.72-2.53-.17-5.04-.34-7.54-.51-3.77-.35-7.54-.62-11.31-.83 1.62-.63 3.21-1.38 4.8-2.1l.88-.13c1.88.59 3.88.4 5.78-.02 3.61.06 7.28.15 10.91.17 6.75 1.79 7.28-2.63.16-.92-13.78-.71-27.52-1.72-41.27-2.76 1.17-9.8 11.23-3.05 19.14-5.01-5.02-5.18-14.94-4.57-22.05-6.15m27.52 8.29c-6.97 3.59 17.91 3.39 20.63 1.87-6.7-1.7-13.75-1.78-20.63-1.87z" transform="rotate(32.007 1761.56 5378.229) scale(1.25)" fill="#cb201f" filter="url(#c)"/><path d="M439.96 311.04c6.41-2.8 13.4-3.4 20.16-1.35-5.02 1.3-10.29 2.39-15.35 3.01 34.33 6.17 69.47 12.12 102.19 24.77-10.72 1.12-20.57-5.4-31.14-6.39 3.96 1.92 8.62 2.54 12.24 5.21-4.11 3.64-11.55-5.22-14.26-.17-1.83-.62-3.7-1.12-5.58-1.53-4.41-.79-13.41-5.81-8.56 1.44l.31.74c-8.26-.93-9.29 3.68-19.42 2.03-1.17-.03-2.33-.03-3.49 0-1.51-.28-4.55-.85-6.07-1.13-2.3-.37-4.59-.62-6.88-.73l-.81-.07-1.29-.89c-.36-2.4-7.06-2.7-3.73-4.22 1.11.15 2.24.29 3.37.41 15.14 1.71.83-4.89-5.91-3.13-8.72-.35-17.31-1.74-25.91-3.06 1.4 3.82 6.98 1.83 10.26 2.96-.25 2.48-2.85 2.64-4.81 2.21-1.43-.13-2.86-.12-4.27-.26-.92-1.27-2.63-1.51-3.95-.76-1.49-.13-2.98-.23-4.47-.3-1.19-.2-2.38-.41-3.56-.61-4.38-.77-8.83-.84-13.24-1.09 1.75-4.04 18.65 1.04 14.51-3.36-14.08-1.65 1.35-6.1 6.75-4.92 14.53 2.42 29.17 4.35 43.82 5.89-5.48-4.7-17.84-3.09-26.09-5.49-4.35.34-5.95-1.04-3.74-4.32 10.48-.53 3.72-1.11-.72-2.16-.43-.46-1.3-1.38-1.74-1.84.35-.22 1.04-.67 1.38-.89m10.32-.95c.15 3.32 2.98-1.55 0 0z" transform="rotate(32.007 1761.56 5378.229) scale(1.25)" fill="#c91010" filter="url(#c)"/><path d="M511.9 308.28c.92-1.32 3.92-.7 4 .99-1.4-.07-2.76-.38-4-.99z" transform="rotate(32.007 1761.56 5378.229) scale(1.25)" fill="#cd3937" filter="url(#c)"/><path d="M223.13 309.05c2.01.01 4.02 0 6.03.04l.93.11.12.5c-1.99.9-5.88.99-7.08-.65z" transform="rotate(32.007 1761.56 5378.229) scale(1.25)" fill="#d27d78" filter="url(#c)"/><path d="M230.09 309.2c1.33-.8 3-.63 4.06.55-1.31.49-2.63.47-3.94-.05l-.12-.5z" transform="rotate(32.007 1761.56 5378.229) scale(1.25)" fill="#cf5551" filter="url(#c)"/><path d="M515.9 309.27c.92-1.3 3.93-.69 4 1.01-1.4-.08-2.76-.39-4-1.01z" transform="rotate(32.007 1761.56 5378.229) scale(1.25)" fill="#ce403d" filter="url(#c)"/><path d="M230.21 309.7c1.31.52 2.63.54 3.94.05l.82.22.06.52c-1.2 1.35-4.48 1.07-4.82-.79z" transform="rotate(32.007 1761.56 5378.229) scale(1.25)" fill="#d3817c" filter="url(#c)"/><path d="M234.97 309.97c1.71-.07 3.46 0 5.1.56-.33.17-1 .52-1.33.69-.93-.19-2.79-.55-3.71-.73l-.06-.52z" transform="rotate(32.007 1761.56 5378.229) scale(1.25)" fill="#d05e5a" filter="url(#c)"/><path d="M273.75 311.15c6.1-1.38 25.98-1.32 22.12 3.92-4.88-.82-9.8-1.22-14.69-1.89-2.5-.59-4.97-1.39-7.43-2.03z" transform="rotate(32.007 1761.56 5378.229) scale(1.25)" fill="#cb2826" filter="url(#c)"/><path d="M450.28 310.09c2.98-1.55.15 3.32 0 0z" transform="rotate(32.007 1761.56 5378.229) scale(1.25)" fill="#ca1211" filter="url(#c)"/><path d="M444.77 312.7c5.06-.62 10.33-1.71 15.35-3.01 35.83 3.24 64.86 20.94 100.99 25.31 2.61.66 5.22 1.33 7.86 1.88 16.85 15.35 46.5 7.4 64 21.17-16.21-3.09-32.7-4.28-48.91-7.35-1.01-1.22-2.76-1.27-3.99-.41-8.73-1.15-17.26-3.32-25.95-4.63-10.1-.52-18.45 2.81-29.27-2.79 5.39-.67 4.14-3.42-.61-4.03-.54-.11-1.62-.34-2.17-.45-1.74-.52-3.47-1.05-5.19-1.59l-2.28-.4-.8-.28c2.71-5.05 10.15 3.81 14.26.17-3.62-2.67-8.28-3.29-12.24-5.21 10.57.99 20.42 7.51 31.14 6.39-32.72-12.65-67.86-18.6-102.19-24.77z" transform="rotate(32.007 1761.56 5378.229) scale(1.25)" fill="#c90c0c" filter="url(#c)"/><path d="M519.9 310.28c.91-1.31 3.93-.76 4 .96-1.39-.07-2.76-.36-4-.96z" transform="rotate(32.007 1761.56 5378.229) scale(1.25)" fill="#ce423f" filter="url(#c)"/><path d="M238.74 311.22c.33-.17 1-.52 1.33-.69 1.68.44 3.37.87 5.09 1.14-1.51.81-6.19 1.35-6.42-.45z" transform="rotate(32.007 1761.56 5378.229) scale(1.25)" fill="#d27c76" filter="url(#c)"/><path d="M372.8 311.12c21.49 1.24 43.71.74 64.25 7.99-21.45-2.56-42.71-6.34-64.25-7.99z" transform="rotate(32.007 1761.56 5378.229) scale(1.25)" fill="#ca1918" filter="url(#c)"/><path d="M523.9 311.24c1.42-.96 2.43-.63 3.03.98-1.16.11-2.17-.22-3.03-.98z" transform="rotate(32.007 1761.56 5378.229) scale(1.25)" fill="#cd3c3a" filter="url(#c)"/><path d="M245.16 311.67c1.69.21 3.36.56 5 1-1.18 1.34-4.8.95-5-1z" transform="rotate(32.007 1761.56 5378.229) scale(1.25)" fill="#d27a75" filter="url(#c)"/><path d="M526.93 312.22c.95-1.27 3.9-.61 3.97 1.06-1.39-.06-2.76-.39-3.97-1.06z" transform="rotate(32.007 1761.56 5378.229) scale(1.25)" fill="#cd3b38" filter="url(#c)"/><path d="M250.16 312.67c1.71.23 3.42.54 5.07 1.04-1.24 1.26-4.85.91-5.07-1.04z" transform="rotate(32.007 1761.56 5378.229) scale(1.25)" fill="#d2746f" filter="url(#c)"/><path d="M267.12 314.99c-6.02-4.98 9.09.14 12.58.25 23.93 1.88 47.73 7.49 71.68 7.7-1.59.72-3.18 1.47-4.8 2.1-26.64-1.55-53.24-5.06-79.46-10.05z" transform="rotate(32.007 1761.56 5378.229) scale(1.25)" fill="#cb2523" filter="url(#c)"/><path d="M281.18 313.18c4.89.67 9.81 1.07 14.69 1.89 8.35.77 16.63 2.18 24.93 3.3 2.34.31 4.68.61 7.04.91 13.75 1.04 27.49 2.05 41.27 2.76l-.16.92c-3.63-.02-7.3-.11-10.91-.17-2.84-2.2-4.76-2.19-5.78.02l-.88.13c-23.95-.21-47.75-5.82-71.68-7.7.37-.51 1.11-1.54 1.48-2.06z" transform="rotate(32.007 1761.56 5378.229) scale(1.25)" fill="#cc2f2d" filter="url(#c)"/><path d="M441.04 315.93c-10.84-1.77-12.5-3.47-.72-2.16 4.44 1.05 11.2 1.63.72 2.16z" transform="rotate(32.007 1761.56 5378.229) scale(1.25)" fill="#ca1d1b" filter="url(#c)"/><path d="M530.9 313.28c.92-1.32 3.92-.7 4 1-1.4-.08-2.76-.39-4-1z" transform="rotate(32.007 1761.56 5378.229) scale(1.25)" fill="#ce413e" filter="url(#c)"/><path d="M255.23 313.71c.66.05 1.97.16 2.63.21l-.02.89c-1.38.71-2.25.34-2.61-1.1z" transform="rotate(32.007 1761.56 5378.229) scale(1.25)" fill="#d16a66" filter="url(#c)"/><path d="M257.86 313.92c3.09.28 6.17.69 9.26 1.07 26.22 4.99 52.82 8.5 79.46 10.05 3.77.21 7.54.48 11.31.83.96 1.11 2.4 1.39 3.63 2.09-34.74-1.49-69.68-5.63-103.68-13.15l.02-.89z" transform="rotate(32.007 1761.56 5378.229) scale(1.25)" fill="#ce4340" filter="url(#c)"/><path d="M534.9 314.28c.9-1.31 3.94-.76 3.99.96-1.39-.07-2.75-.36-3.99-.96z" transform="rotate(32.007 1761.56 5378.229) scale(1.25)" fill="#ce4744" filter="url(#c)"/><path d="M538.89 315.24c1.43-.96 2.44-.63 3.03.98-1.16.11-2.17-.22-3.03-.98z" transform="rotate(32.007 1761.56 5378.229) scale(1.25)" fill="#cd4340" filter="url(#c)"/><path d="M352.45 316.41c6.88.09 13.93.17 20.63 1.87-2.72 1.52-27.6 1.72-20.63-1.87z" transform="rotate(32.007 1761.56 5378.229) scale(1.25)" fill="#cb2927" filter="url(#c)"/><path d="M541.92 316.22c.95-1.26 3.91-.62 3.98 1.06-1.39-.07-2.76-.38-3.98-1.06z" transform="rotate(32.007 1761.56 5378.229) scale(1.25)" fill="#cd403e" filter="url(#c)"/><path d="M545.9 317.28c.97-1.25 3.93-.64 4.04 1.03-1.41-.09-2.81-.35-4.04-1.03z" transform="rotate(32.007 1761.56 5378.229) scale(1.25)" fill="#cd423f" filter="url(#c)"/><path d="M399.63 318.55c9.03-1.37 18.51-.87 27.42 1.3-5.4-1.18-20.83 3.27-6.75 4.92 4.14 4.4-12.76-.68-14.51 3.36-10.86-.63-5.02-5.11 4.49-3.71-7.6-3.73 3.08-5.27-10.65-5.87z" transform="rotate(32.007 1761.56 5378.229) scale(1.25)" fill="#ca1918" filter="url(#c)"/><path d="M549.94 318.31c1.39-1.36 5.6-1.18 5.9 1l-5.9-1z" transform="rotate(32.007 1761.56 5378.229) scale(1.25)" fill="#cd3b39" filter="url(#c)"/><path d="M390.29 318.79c4.51.33 10.01-1.05 4.7 3.3 11.73 1.22-3.83 2.92-7.9 3.56 2.66 1.02 6.44.44 7.97 3.35-9.86-.97-19.79-2.08-29.63-2.62 5.18.04 15.12-1.15 17.2-1.72-18.18-4.19 21.23-.35 7.66-5.87z" transform="rotate(32.007 1761.56 5378.229) scale(1.25)" fill="#cb2625" filter="url(#c)"/><path d="M555.84 319.31c1.21-1.24 4.79-1.03 5.09.89-1.73-.08-3.43-.43-5.09-.89z" transform="rotate(32.007 1761.56 5378.229) scale(1.25)" fill="#cb2827" filter="url(#c)"/><path d="M561.8 320.3c.98-1.24 3.91-.86 4.26.78-1.47.04-2.92-.22-4.26-.78z" transform="rotate(32.007 1761.56 5378.229) scale(1.25)" fill="#cb2322" filter="url(#c)"/><path d="M533.08 320.8c33.17 10.53 68.67 13.36 102.93 16.22-1.71-.84-3.06-2.33-4.95-2.77l.81-.22c.44.08 1.31.26 1.74.34 1.46.44 2.98.64 4.51.66l.83.35c.97.86 2.05 1.02 3.26.49.67.09 2 .28 2.67.38 1 .74 2.12.98 3.36.7.43.1 1.28.29 1.71.38.96.86 2.05 1.04 3.26.53.67.1 2 .29 2.66.39 1 .74 2.12.97 3.36.69.42.1 1.27.3 1.7.4.95.87 2.03 1.05 3.24.53 1.2.11 2.41.17 3.63.2l.89.19c1.66.57 3.41.87 5.18 1.05 1.63.54 3.34.8 5.05 1.01 1.51.25 4.53.73 6.04.97l6.03 1.04c1.5.24 4.5.74 6 .99l6 1 6 1 6 1 6.01 1c1.49.25 4.48.76 5.98 1.02 1.46.23 4.39.71 5.85.95s4.37.71 5.83.95c4.1.69 8.22 1.38 12.35 2.07 1.56.57 3.22.87 4.89 1.05 1.61.42 3.25.72 4.91.98 1.64.44 3.32.74 5.02.99 1.63.46 3.31.75 5 1.01 1.63.45 3.3.74 4.99.99 1.63.45 3.31.75 4.99 1.02 1.68.39 3.38.72 5.12.85l.86.09c1.33.54 2.74.85 4.2.89l.85.12c1.3.57 2.72.85 4.16.88l.84.12c1.3.57 2.71.85 4.15.88l.84.12c1.31.57 2.72.85 4.16.88l.85.12c1.3.57 2.71.85 4.15.88l.85.12c1.3.57 2.71.85 4.15.88l.85.12c1.3.57 2.71.85 4.15.88l.84.12c1.3.56 2.71.85 4.15.9l.85.14c1.63.57 3.36.79 5.09.97 1.49.25 4.45.74 5.93.98 1.65.49 3.35.83 5.08.93l.86.11c1.66.54 3.4.8 5.14 1 1.51.24 4.53.72 6.03.95l5.92 1.04c1.62.57 3.34.8 5.05 1.02 1.5.24 4.48.71 5.97.95 1.47.21 4.39.64 5.85.85l.53.66c-1.52.18-2.93.74-4.44.86 16.51 4.67 33.66 6.24 50.15 10.77-12.49 3.32-25.44 2.5-37.79-.85-9.68.58-19.33 3.73-29.17-1.66 9.26-3.18-6.14-1.47-6.92-5.86 5.49-3.23 13 .1 17.87-1.86-26.4-5.05-53.18-8.23-79.13-15.47-27.53-4.99-55.27-8.81-82.61-14.68-17.98-3-36.02-5.68-54.12-7.81 1.67 5.1 12.77 3.1 17.02 6.18-10.6 1.81-20.74-2.99-31.25-3.29-5.3-1.02-10.64-1.85-15.86-3.18-28.29-8.13-57.73-10.67-86.46-16.61.63-2.28-.19-3.88-2.49-4.54z" transform="rotate(32.007 1761.56 5378.229) scale(1.25)" fill="#c90e0e" filter="url(#c)"/><path d="M567.81 321.24c1.4-.97 2.48-.68 3.23.88-1.21.14-2.28-.16-3.23-.88z" transform="rotate(32.007 1761.56 5378.229) scale(1.25)" fill="#cb2624" filter="url(#c)"/><path d="M352.26 322.81c1.02-2.21 2.94-2.22 5.78-.02-1.9.42-3.9.61-5.78.02z" transform="rotate(32.007 1761.56 5378.229) scale(1.25)" fill="#cc2a28" filter="url(#c)"/><path d="M369.11 322.04c7.12-1.71 6.59 2.71-.16.92l.16-.92z" transform="rotate(32.007 1761.56 5378.229) scale(1.25)" fill="#cb2725" filter="url(#c)"/><path d="M571.87 322.29c.95-1.29 3.91-.76 4.13.91-1.43-.03-2.84-.32-4.13-.91z" transform="rotate(32.007 1761.56 5378.229) scale(1.25)" fill="#cd3735" filter="url(#c)"/><path d="M576.83 323.35c1.17-1.31 4.8-.97 5.01.98-1.7-.2-3.38-.5-5.01-.98z" transform="rotate(32.007 1761.56 5378.229) scale(1.25)" fill="#ce4845" filter="url(#c)"/><path d="M581.84 324.33c1.16-1.36 4.82-.96 4.99 1.01-1.69-.25-3.36-.56-4.99-1.01z" transform="rotate(32.007 1761.56 5378.229) scale(1.25)" fill="#ce4240" filter="url(#c)"/><path d="M586.83 325.34c1.17-1.36 4.83-.98 5 1-1.69-.26-3.37-.55-5-1z" transform="rotate(32.007 1761.56 5378.229) scale(1.25)" fill="#ce413e" filter="url(#c)"/><path d="M357.89 325.87c2.5.17 5.01.34 7.54.51 9.84.54 19.77 1.65 29.63 2.62 1.09.29 2.2.57 3.32.82-12.29-.25-24.64-.73-36.86-1.86-1.23-.7-2.67-.98-3.63-2.09z" transform="rotate(32.007 1761.56 5378.229) scale(1.25)" fill="#cd3836" filter="url(#c)"/><path d="M429.83 325.98c8.6 1.32 17.19 2.71 25.91 3.06.79 1.08 9.58 1.4 5.91 3.13-1.13-.12-2.26-.26-3.37-.41-6.07-.9-12.13-1.88-18.19-2.82-3.28-1.13-8.86.86-10.26-2.96z" transform="rotate(32.007 1761.56 5378.229) scale(1.25)" fill="#cc302e" filter="url(#c)"/><path d="M591.83 326.34c1.16-1.36 4.83-.98 4.99.99-1.69-.25-3.36-.54-4.99-.99z" transform="rotate(32.007 1761.56 5378.229) scale(1.25)" fill="#ce413e" filter="url(#c)"/><path d="M596.82 327.33c1.18-1.34 4.83-.97 5.01 1-1.69-.25-3.37-.54-5.01-1z" transform="rotate(32.007 1761.56 5378.229) scale(1.25)" fill="#ce413d" filter="url(#c)"/><path d="M405.79 328.13c4.41.25 8.86.32 13.24 1.09-4.33 1.89-8.93-.3-13.24-1.09z" transform="rotate(32.007 1761.56 5378.229) scale(1.25)" fill="#ca1a19" filter="url(#c)"/><path d="M601.83 328.33c1.19-1.32 4.78-.9 5.08.98-1.72-.22-3.44-.44-5.08-.98z" transform="rotate(32.007 1761.56 5378.229) scale(1.25)" fill="#cd3f3c" filter="url(#c)"/><path d="M440.09 328.94c6.06.94 12.12 1.92 18.19 2.82-3.33 1.52 3.37 1.82 3.73 4.22-1.8.08-3.6.12-5.39.03-6.64-3.35-14.26-3.1-21.34-4.86 1.96.43 4.56.27 4.81-2.21zM455.74 329.04c6.74-1.76 21.05 4.84 5.91 3.13 3.67-1.73-5.12-2.05-5.91-3.13z" transform="rotate(32.007 1761.56 5378.229) scale(1.25)" fill="#ca1b1a" filter="url(#c)"/><path d="M606.91 329.31c1.41-1.38 5.56-1.16 5.95.98-1.49-.25-4.47-.73-5.95-.98z" transform="rotate(32.007 1761.56 5378.229) scale(1.25)" fill="#cd403e" filter="url(#c)"/><path d="M420.9 330.61c.42-.2 1.27-.58 1.69-.78 1.49.07 2.98.17 4.47.3.92 1.27 2.6 1.39 3.95.76 1.41.14 2.84.13 4.27.26 7.08 1.76 14.7 1.51 21.34 4.86-11.69-1.01-25.42-1.77-35.72-5.4z" transform="rotate(32.007 1761.56 5378.229) scale(1.25)" fill="#cd423f" filter="url(#c)"/><path d="M427.06 330.13c1.32-.75 3.03-.51 3.95.76-1.35.63-3.03.51-3.95-.76z" transform="rotate(32.007 1761.56 5378.229) scale(1.25)" fill="#cb2726" filter="url(#c)"/><path d="M545.17 329.93c25.93 1.78 51.16 8.64 76.86 12.02 5.22 1.33 10.56 2.16 15.86 3.18 6.64 3.29 14.86 2.93 21.09 6.7-15.31-1.65-32.84-8.18-46.82-7.1 15.84 3.57 31.95 6.11 47.94 9.03 11.51 2.45 23.19 4 34.75 6.25 2.52 1.74 4.44 4.98-.15 4.32-11.37-1.54-22.57-4.45-34.04-5.19 10.14 3.56 21.14 4.32 31.63 6.72-5.16 1.03-14.51.92-5.62 3.46 8.52 5.81-12.02-2.75-6.89 5.75-14.94-4.98-31.06-4.61-46.52-7.44 1.15 6.74 20.3.63 14.71 8.68-11.71-1.96-23.64-3.31-35.06-6.62-1.19-.72-2.55-.95-3.91-.88l-.8-.12c-1.28-.61-2.68-.83-4.07-.74-6.12-.17-12.16-1.4-18.08-2.84-6.83-5.25 8.41.78 8.93-2-14.69-3.36-30.67-5.33-44.35-11.06 26.83 3.65 53.21 10.47 80 13.9-2.3-2.97-12.94-3.26-17.73-5.4 13.36-2.42 26.05 4.76 39.43 3.34a56.59 56.59 0 00-10.34-2.84c7.15-.45 14.02 1.71 20.93 3.2-5.75-7.83-19.8-4.82-28.33-8.64-20.93-9.56-45.31-8.36-65.62-18.73-2.64-.55-5.25-1.22-7.86-1.88-4.63-3.27-12.47-1.77-15.94-5.07z" transform="rotate(32.007 1761.56 5378.229) scale(1.25)" fill="#ca1918" filter="url(#c)"/><path d="M612.86 330.29c1.22-1.23 4.73-.92 5.07.95-1.73-.1-3.44-.4-5.07-.95z" transform="rotate(32.007 1761.56 5378.229) scale(1.25)" fill="#cd4341" filter="url(#c)"/><path d="M617.93 331.24c.78.02 2.34.05 3.12.07l.18.66c-1.21.17-2.3-.07-3.3-.73z" transform="rotate(32.007 1761.56 5378.229) scale(1.25)" fill="#cd3735" filter="url(#c)"/><path d="M621.05 331.31c1.17-1 1.99-.82 2.45.55l-.57.49c-.42-.09-1.28-.28-1.7-.38l-.18-.66z" transform="rotate(32.007 1761.56 5378.229) scale(1.25)" fill="#d05c58" filter="url(#c)"/><path d="M499.66 336.03c-4.85-7.25 4.15-2.23 8.56-1.44-3.32.77-1.26 1.47.67 2.62-3-.7-6.13-1.81-9.23-1.18z" transform="rotate(32.007 1761.56 5378.229) scale(1.25)" fill="#ca1918" filter="url(#c)"/><path d="M622.93 332.35l.57-.49 2.5.48.22.67c-1.2.22-2.29 0-3.29-.66z" transform="rotate(32.007 1761.56 5378.229) scale(1.25)" fill="#cc3533" filter="url(#c)"/><path d="M626 332.34c1.16-1.09 1.96-.92 2.4.52l-.52.43-1.66-.28-.22-.67z" transform="rotate(32.007 1761.56 5378.229) scale(1.25)" fill="#d05955" filter="url(#c)"/><path d="M627.88 333.29l.52-.43 3.42.52.05.65-.81.22c-1.08-.3-2.14-.62-3.18-.96z" transform="rotate(32.007 1761.56 5378.229) scale(1.25)" fill="#cd3734" filter="url(#c)"/><path d="M631.82 333.38c1.3-1.03 2.09-.84 2.37.55l-.58.44c-.43-.08-1.3-.26-1.74-.34l-.05-.65z" transform="rotate(32.007 1761.56 5378.229) scale(1.25)" fill="#d0605c" filter="url(#c)"/><path d="M633.61 334.37l.58-.44c.97.13 2.91.38 3.88.51l.05.59c-1.53-.02-3.05-.22-4.51-.66z" transform="rotate(32.007 1761.56 5378.229) scale(1.25)" fill="#ce3d3a" filter="url(#c)"/><path d="M638.07 334.44c1.27-1.03 2.15-.91 2.66.34-.45.15-1.34.45-1.78.6l-.83-.35-.05-.59z" transform="rotate(32.007 1761.56 5378.229) scale(1.25)" fill="#d16561" filter="url(#c)"/><path d="M499.66 336.03c3.1-.63 6.23.48 9.23 1.18 4.99.55 10.33 3.66 15.35 1.63 4.75.61 6 3.36.61 4.03 10.82 5.6 19.17 2.27 29.27 2.79-8.94 2.14 34.95 8.22 11.67 6.39l-.87-.21c-1.36-1.24-3.25-1.53-4.92-.78l-.87-.12c-13.35-2.45-27.2-2.39-39.81-8.08-1.16 5.87-32.72-2.36-14.57-2.86 5.58-.7-2.8-2.56-4.78-3.23l-.31-.74m16.62 6.06c.15 3.32 2.98-1.55 0 0z" transform="rotate(32.007 1761.56 5378.229) scale(1.25)" fill="#ca1413" filter="url(#c)"/><path d="M508.89 337.21c-1.93-1.15-3.99-1.85-.67-2.62 1.88.41 3.75.91 5.58 1.53l.8.28 2.28.4c1.72.54 3.45 1.07 5.19 1.59.55.11 1.63.34 2.17.45-5.02 2.03-10.36-1.08-15.35-1.63z" transform="rotate(32.007 1761.56 5378.229) scale(1.25)" fill="#cb2927" filter="url(#c)"/><path d="M638.95 335.38c.44-.15 1.33-.45 1.78-.6l1.23.47.25.62c-1.21.53-2.29.37-3.26-.49z" transform="rotate(32.007 1761.56 5378.229) scale(1.25)" fill="#cc302e" filter="url(#c)"/><path d="M641.96 335.25c.84-.86 3.38-.94 3.51.57l-.59.43c-.67-.1-2-.29-2.67-.38l-.25-.62z" transform="rotate(32.007 1761.56 5378.229) scale(1.25)" fill="#cf5753" filter="url(#c)"/><path d="M456.62 336.01c1.79.09 3.59.05 5.39-.03l1.29.89c-1.74.74-6.2.88-6.68-.86z" transform="rotate(32.007 1761.56 5378.229) scale(1.25)" fill="#cd3936" filter="url(#c)"/><path d="M480.55 338.8c10.13 1.65 11.16-2.96 19.42-2.03 1.98.67 10.36 2.53 4.78 3.23-18.15.5 13.41 8.73 14.57 2.86 12.61 5.69 26.46 5.63 39.81 8.08-18.15.77-35.59-3.7-53.56-4.77l-2.52-.28-.83-.16c-.94-.71-1.98-1.02-3.14-.92-.91-.77-1.95-1.07-3.12-.9l-.83-.15c-.92-.75-1.97-1.02-3.13-.84l-.81-.16c-.94-.75-2-1-3.16-.74-1.46.05-2.95-.3-4.11-1.2-.83-.86-1.84-1.28-3.02-1.26l-.35-.76z" transform="rotate(32.007 1761.56 5378.229) scale(1.25)" fill="#ca1918" filter="url(#c)"/><path d="M514.6 336.4l2.28.4-2.28-.4z" transform="rotate(32.007 1761.56 5378.229) scale(1.25)" fill="#ca1413" filter="url(#c)"/><path d="M644.88 336.25l.59-.43c.65.13 1.95.41 2.6.54l.17.59c-1.24.28-2.36.04-3.36-.7z" transform="rotate(32.007 1761.56 5378.229) scale(1.25)" fill="#cc3432" filter="url(#c)"/><path d="M648.07 336.36c.83-.82 3.49-1.01 3.64.4-.44.14-1.32.43-1.76.57-.43-.09-1.28-.28-1.71-.38l-.17-.59z" transform="rotate(32.007 1761.56 5378.229) scale(1.25)" fill="#d05955" filter="url(#c)"/><path d="M464.11 336.94c2.29.11 4.58.36 6.88.73-1.73 1.27-6.07 1.51-6.88-.73z" transform="rotate(32.007 1761.56 5378.229) scale(1.25)" fill="#cc3230" filter="url(#c)"/><path d="M568.97 336.88c20.31 10.37 44.69 9.17 65.62 18.73 8.53 3.82 22.58.81 28.33 8.64-6.91-1.49-13.78-3.65-20.93-3.2-19.18-3.87-38.93-4.49-57.9-9.48l-.03-.87c16.21 3.07 32.7 4.26 48.91 7.35-17.5-13.77-47.15-5.82-64-21.17z" transform="rotate(32.007 1761.56 5378.229) scale(1.25)" fill="#ca1312" filter="url(#c)"/><path d="M649.95 337.33c.44-.14 1.32-.43 1.76-.57l1.24.49.26.61c-1.21.51-2.3.33-3.26-.53z" transform="rotate(32.007 1761.56 5378.229) scale(1.25)" fill="#cb2c2b" filter="url(#c)"/><path d="M652.95 337.25c.84-.86 3.38-.94 3.51.57l-.59.43c-.66-.1-1.99-.29-2.66-.39l-.26-.61z" transform="rotate(32.007 1761.56 5378.229) scale(1.25)" fill="#cf524f" filter="url(#c)"/><path d="M470.99 337.67c1.52.28 4.56.85 6.07 1.13-1.54 1.34-5.51.95-6.07-1.13z" transform="rotate(32.007 1761.56 5378.229) scale(1.25)" fill="#cc3533" filter="url(#c)"/><path d="M522.07 338.39c.55.11 1.63.34 2.17.45-.54-.11-1.62-.34-2.17-.45z" transform="rotate(32.007 1761.56 5378.229) scale(1.25)" fill="#ca1514" filter="url(#c)"/><path d="M655.87 338.25l.59-.43c.65.13 1.95.4 2.6.53l.17.59c-1.24.28-2.36.05-3.36-.69z" transform="rotate(32.007 1761.56 5378.229) scale(1.25)" fill="#cc3230" filter="url(#c)"/><path d="M659.06 338.35c.83-.81 3.51-.99 3.62.42-.43.14-1.31.43-1.75.57-.43-.1-1.28-.3-1.7-.4l-.17-.59z" transform="rotate(32.007 1761.56 5378.229) scale(1.25)" fill="#cf5350" filter="url(#c)"/><path d="M477.06 338.8c1.16-.03 2.32-.03 3.49 0l.35.76c-.94 1.13-3.46.6-3.84-.76z" transform="rotate(32.007 1761.56 5378.229) scale(1.25)" fill="#cd3634" filter="url(#c)"/><path d="M660.93 339.34c.44-.14 1.32-.43 1.75-.57l1.23.48.26.62c-1.21.52-2.29.34-3.24-.53z" transform="rotate(32.007 1761.56 5378.229) scale(1.25)" fill="#cb2725" filter="url(#c)"/><path d="M663.91 339.25c.97-1 3.76-.75 3.89.82a54.42 54.42 0 01-3.63-.2l-.26-.62z" transform="rotate(32.007 1761.56 5378.229) scale(1.25)" fill="#ce4a46" filter="url(#c)"/><path d="M480.9 339.56c1.18-.02 2.19.4 3.02 1.26-1.49.8-2.5.38-3.02-1.26z" transform="rotate(32.007 1761.56 5378.229) scale(1.25)" fill="#cd3735" filter="url(#c)"/><path d="M668.69 340.26c1.3-1.13 4.86-.87 5.18 1.05-1.77-.18-3.52-.48-5.18-1.05z" transform="rotate(32.007 1761.56 5378.229) scale(1.25)" fill="#ce4846" filter="url(#c)"/><path d="M673.87 341.31c1.19-1.32 4.73-.87 5.05 1.01-1.71-.21-3.42-.47-5.05-1.01z" transform="rotate(32.007 1761.56 5378.229) scale(1.25)" fill="#ce423f" filter="url(#c)"/><path d="M488.03 342.02c1.16-.26 2.22-.01 3.16.74-1.39 1-2.44.75-3.16-.74z" transform="rotate(32.007 1761.56 5378.229) scale(1.25)" fill="#cd3433" filter="url(#c)"/><path d="M516.28 342.09c2.98-1.55.15 3.32 0 0z" transform="rotate(32.007 1761.56 5378.229) scale(1.25)" fill="#ca1716" filter="url(#c)"/><path d="M652.12 342.24c18.1 2.13 36.14 4.81 54.12 7.81-6.39 1.84-12.68-1.49-19-2.11-5.85 4.88 11.67 1.33 5.37 5.85-10.6-.52-21.49-4.06-31.99-1.63-.41-.08-1.23-.25-1.64-.33-6.23-3.77-14.45-3.41-21.09-6.7 10.51.3 20.65 5.1 31.25 3.29-4.25-3.08-15.35-1.08-17.02-6.18z" transform="rotate(32.007 1761.56 5378.229) scale(1.25)" fill="#ca1312" filter="url(#c)"/><path d="M678.92 342.32c1.43-1.42 5.5-1.07 6.04.97-1.51-.24-4.53-.72-6.04-.97z" transform="rotate(32.007 1761.56 5378.229) scale(1.25)" fill="#ce403e" filter="url(#c)"/><path d="M492 342.92c1.16-.18 2.21.09 3.13.84-1.4.98-2.44.71-3.13-.84z" transform="rotate(32.007 1761.56 5378.229) scale(1.25)" fill="#cd3432" filter="url(#c)"/><path d="M495.96 343.91c1.17-.17 2.21.13 3.12.9-1.42.95-2.46.65-3.12-.9z" transform="rotate(32.007 1761.56 5378.229) scale(1.25)" fill="#cc3432" filter="url(#c)"/><path d="M612.16 344.73c13.98-1.08 31.51 5.45 46.82 7.1.41.08 1.23.25 1.64.33l.74.43c-.31.29-.94.87-1.26 1.17-15.99-2.92-32.1-5.46-47.94-9.03z" transform="rotate(32.007 1761.56 5378.229) scale(1.25)" fill="#cb2725" filter="url(#c)"/><path d="M499.08 344.81c1.16-.1 2.2.21 3.14.92-1.45.99-2.49.68-3.14-.92z" transform="rotate(32.007 1761.56 5378.229) scale(1.25)" fill="#cd3d3b" filter="url(#c)"/><path d="M503.05 345.89l2.52.28.2.8c-1.39.8-2.3.44-2.72-1.08z" transform="rotate(32.007 1761.56 5378.229) scale(1.25)" fill="#cd3a37" filter="url(#c)"/><path d="M505.57 346.17c17.97 1.07 35.41 5.54 53.56 4.77l.87.12c1.34 1.24 3.26 1.59 4.92.78l.87.21c6.44 2.45 13.37 3.01 20.13 4.19.27-3.05-6.94-3.11-1.83-4.67 18.97 4.99 38.72 5.61 57.9 9.48 3.53.62 6.97 1.56 10.34 2.84-13.38 1.42-26.07-5.76-39.43-3.34 4.79 2.14 15.43 2.43 17.73 5.4-26.79-3.43-53.17-10.25-80-13.9 13.68 5.73 29.66 7.7 44.35 11.06-.52 2.78-15.76-3.25-8.93 2-5.08-.99-10.28-1.62-15.14-3.43-1.21-.69-2.59-.96-3.96-.88l-.82-.11c-1.3-.57-2.69-.85-4.1-.87l-.84-.12a11.03 11.03 0 00-4.15-.88l-.83-.14c-1.32-.6-2.76-.87-4.19-.69-15.76-1.58-30.99-6.91-46.25-11.02l-.2-.8z" transform="rotate(32.007 1761.56 5378.229) scale(1.25)" fill="#cb201e" filter="url(#c)"/><path d="M565.79 352.05c23.28 1.83-20.61-4.25-11.67-6.39 8.69 1.31 17.22 3.48 25.95 4.63 1.06 1.04 2.72 1.3 3.99.41l.03.87c-5.11 1.56 2.1 1.62 1.83 4.67-6.76-1.18-13.69-1.74-20.13-4.19z" transform="rotate(32.007 1761.56 5378.229) scale(1.25)" fill="#ca1a19" filter="url(#c)"/><path d="M687.24 347.94c6.32.62 12.61 3.95 19 2.11 27.34 5.87 55.08 9.69 82.61 14.68 1.05.85 2.09 1.73 3.16 2.6-5.25-1.15-10.57-1.87-15.92-2.23-1.1-1.7-3.4-2.29-4.92-.77-16.89-5.34-34.65-6.6-52-9.72-3.26.07-7.97-1.99-10.48.99l-.87-.04c-5.76.08-13.9-2.24-12.2 3.04-11.43-1.94-22.84-4.02-34.26-6.01l-.74-.43c10.5-2.43 21.39 1.11 31.99 1.63 6.3-4.52-11.22-.97-5.37-5.85z" transform="rotate(32.007 1761.56 5378.229) scale(1.25)" fill="#ca1817" filter="url(#c)"/><path d="M580.07 350.29c1.23-.86 2.98-.81 3.99.41-1.27.89-2.93.63-3.99-.41z" transform="rotate(32.007 1761.56 5378.229) scale(1.25)" fill="#c91110" filter="url(#c)"/><path d="M560 351.06c1.67-.75 3.56-.46 4.92.78-1.66.81-3.58.46-4.92-.78z" transform="rotate(32.007 1761.56 5378.229) scale(1.25)" fill="#ca1817" filter="url(#c)"/><path d="M660.1 353.76c.32-.3.95-.88 1.26-1.17 11.42 1.99 22.83 4.07 34.26 6.01 3.12.49 6.33 1.02 9.48 1.48-.6.27-1.8.83-2.4 1.1-2.63-.35-5.25-.7-7.85-1.17-11.56-2.25-23.24-3.8-34.75-6.25z" transform="rotate(32.007 1761.56 5378.229) scale(1.25)" fill="#cd3835" filter="url(#c)"/><path d="M552.02 357.99c1.43-.18 2.87.09 4.19.69-.98 1.16-3.9.94-4.19-.69z" transform="rotate(32.007 1761.56 5378.229) scale(1.25)" fill="#cd3b39" filter="url(#c)"/><path d="M557.04 358.82c1.42.03 2.83.31 4.15.88-.96 1.28-3.96.8-4.15-.88z" transform="rotate(32.007 1761.56 5378.229) scale(1.25)" fill="#cd3c39" filter="url(#c)"/><path d="M660.66 359.14c11.47.74 22.67 3.65 34.04 5.19 19.1 2.03 38.06 9.28 57.26 6.97 4.99.65 9.98 1.57 14.88 2.76 20.25 8.33-32.57-5.8-18.74.91-18.58-2.09-37.11-6.58-55.81-9.11-10.49-2.4-21.49-3.16-31.63-6.72z" transform="rotate(32.007 1761.56 5378.229) scale(1.25)" fill="#cb2826" filter="url(#c)"/><path d="M562.03 359.82c1.41.02 2.8.3 4.1.87-.93 1.32-3.92.79-4.1-.87z" transform="rotate(32.007 1761.56 5378.229) scale(1.25)" fill="#ce3c3a" filter="url(#c)"/><path d="M566.95 360.8c1.37-.08 2.75.19 3.96.88-.88 1.34-3.74.69-3.96-.88z" transform="rotate(32.007 1761.56 5378.229) scale(1.25)" fill="#cd3b39" filter="url(#c)"/><path d="M604.13 367.95c1.39-.09 2.79.13 4.07.74-.92 1.21-3.93.94-4.07-.74z" transform="rotate(32.007 1761.56 5378.229) scale(1.25)" fill="#cd3735" filter="url(#c)"/><path d="M633.26 367.63c15.46 2.83 31.58 2.46 46.52 7.44.59.16 1.76.49 2.34.65-2.14.53-5.76.25-2.3 2.4-4.05-.13-10.36-4.15-11.35 1.41a26.4 26.4 0 00-3.36-.7l-.85-.16c-1.7-.47-3.43-.77-5.17-.86l-.88-.09c-1.37-.6-2.85-.85-4.33-.83-.44-.07-1.32-.2-1.76-.27-1.33-.55-2.78-.83-4.15-.31 5.59-8.05-13.56-1.94-14.71-8.68z" transform="rotate(32.007 1761.56 5378.229) scale(1.25)" fill="#c90f0f" filter="url(#c)"/><path d="M609 368.81c1.36-.07 2.72.16 3.91.88-.86 1.34-3.75.7-3.91-.88z" transform="rotate(32.007 1761.56 5378.229) scale(1.25)" fill="#cd3533" filter="url(#c)"/></g><path d="M647.319 627.038L587.49 685.12c-2.535 2.46-2.262 8.659.593 9.43 59.457 16.069 76.37 39.318 98.48 62.062 29.359 35.926 38.915 76.902 58.716 93.614 36.616 30.903 69.262-12.768 47.964-56.06-14.532-29.54-33.815-51.97-59.18-79.16-25.365-27.192-60.988-57.851-86.745-87.968zm15.15 38.506a7.479 7.479 0 016.74 8.148 7.479 7.479 0 01-8.147 6.74 7.479 7.479 0 01-6.74-8.148 7.479 7.479 0 018.147-6.74zm50.292 52.935a7.479 7.479 0 016.74 8.148 7.479 7.479 0 01-8.15 6.755 7.479 7.479 0 01-6.738-8.163 7.479 7.479 0 018.148-6.74zm43.529 53.489a7.479 7.479 0 016.74 8.148 7.479 7.479 0 01-8.148 6.74 7.479 7.479 0 01-6.74-8.148 7.479 7.479 0 018.148-6.74z"/></svg>